<svg width="20" height="20" viewBox="0 0 20 20" fill="none" xmlns="http://www.w3.org/2000/svg">
<path d="M9.99967 0.833416C7.56852 0.833416 5.23694 1.79919 3.51786 3.51827C1.79878 5.23735 0.833007 7.56893 0.833007 10.0001C0.833008 12.4312 1.79878 14.7628 3.51786 16.4819C5.23695 18.201 7.56852 19.1667 9.99967 19.1667C12.4308 19.1667 14.7624 18.201 16.4815 16.4819C18.2006 14.7628 19.1663 12.4312 19.1663 10.0001C19.1663 7.56893 18.2006 5.23735 16.4815 3.51827C14.7624 1.79919 12.4308 0.833415 9.99967 0.833416ZM4.16967 9.93008L4.19467 9.78675L4.22801 9.68175L4.28634 9.56841L4.33967 9.49008L8.57634 5.24342L8.69301 5.14842C8.85342 5.03865 9.04716 4.98841 9.2407 5.0064C9.43425 5.02438 9.61541 5.10946 9.75286 5.2469C9.8903 5.38434 9.97537 5.56551 9.99336 5.75905C10.0113 5.95259 9.96111 6.14633 9.85134 6.30675L9.75634 6.42342L7.00967 9.16675L15.833 9.16675L15.983 9.18008C16.1495 9.2105 16.3028 9.2909 16.4225 9.41059C16.5422 9.53028 16.6226 9.68357 16.653 9.85008L16.6663 10.0001L16.653 10.1501C16.6226 10.3166 16.5422 10.4699 16.4225 10.5896C16.3028 10.7093 16.1495 10.7897 15.983 10.8201L15.8313 10.8334L7.01134 10.8351L9.75467 13.5767L9.84967 13.6934C9.94571 13.8326 9.99715 13.9977 9.99715 14.1667C9.99715 14.3358 9.94571 14.5009 9.84967 14.6401L9.75467 14.7567L9.63801 14.8517C9.49885 14.9478 9.33376 14.9992 9.16467 14.9992C8.99559 14.9992 8.8305 14.9478 8.69134 14.8517L8.57467 14.7567L4.38801 10.5684L4.31301 10.4751L4.24301 10.3517L4.19301 10.2134L4.17301 10.1134L4.16467 10.0201L4.16801 9.93008L4.16967 9.93008Z" fill="currentColor"/>
</svg>
