<svg viewBox="0 0 12 12" fill="none" xmlns="http://www.w3.org/2000/svg">
    <path d="M6 0C2.68629 0 0 2.68629 0 6C0 9.31371 2.68629 12 6 12C9.31371 12 12 9.31371 12 6C11.9961 2.68789 9.31211 0.00385738 6 0Z" fill="currentColor" fill-opacity="1"/>
    <path d="M9.46362 4.1L6.04112 8.7445C5.9595 8.85279 5.83779 8.92375 5.70333 8.94143C5.56888 8.9591 5.43296 8.92202 5.32612 8.8385L2.88212 6.8845C2.66646 6.71191 2.63153 6.39717 2.80412 6.1815C2.97671 5.96583 3.29146 5.93091 3.50712 6.1035L5.54512 7.734L8.65862 3.5085C8.76072 3.35529 8.93875 3.27059 9.12203 3.28802C9.30531 3.30545 9.46418 3.42218 9.53558 3.59189C9.60697 3.76159 9.57933 3.95679 9.46362 4.1Z" fill="#353BCE"/>
</svg>
