<svg width="889" height="611" viewBox="0 0 889 611" fill="none" xmlns="http://www.w3.org/2000/svg">
<path fill-rule="evenodd" clip-rule="evenodd" d="M453.351 7.33459C535.639 8.47896 621.547 2.01419 694.142 26.9362C767.57 52.1439 821.662 96.8162 855.971 145.554C888.673 192.008 882.434 243.928 882.788 294.913C883.144 346.107 907.241 404.768 858.052 445.043C808.401 485.696 703.615 470.14 635.375 497.487C563.556 526.269 535.434 593.949 453.351 607.226C370.455 620.635 281.149 596.262 209.417 566.387C139.273 537.173 93.2759 490.35 56.7379 442.043C21.9102 395.997 -11.9121 345.066 4.08144 294.913C19.4905 246.592 107.809 223.494 140.649 178.91C177.742 128.552 140.527 56.3337 206.466 20.1541C270.34 -14.8928 369.376 6.16676 453.351 7.33459Z" fill="#F4F9FD"/>
</svg>
