<svg width="16" height="16" viewBox="0 0 16 16" fill="none" xmlns="http://www.w3.org/2000/svg">
<path d="M0.575044 0.574922C0.856335 0.293715 1.2378 0.135742 1.63554 0.135742C2.03329 0.135742 2.41475 0.293715 2.69604 0.574922L8.00004 5.87892L13.304 0.574922C13.5869 0.301685 13.9658 0.150493 14.3591 0.153911C14.7524 0.157328 15.1287 0.315082 15.4068 0.593194C15.6849 0.871306 15.8426 1.24752 15.8461 1.64082C15.8495 2.03412 15.6983 2.41302 15.425 2.69592L10.121 7.99992L15.425 13.3039C15.6983 13.5868 15.8495 13.9657 15.8461 14.359C15.8426 14.7523 15.6849 15.1285 15.4068 15.4066C15.1287 15.6848 14.7524 15.8425 14.3591 15.8459C13.9658 15.8493 13.5869 15.6982 13.304 15.4249L8.00004 10.1209L2.69604 15.4249C2.41314 15.6982 2.03424 15.8493 1.64094 15.8459C1.24765 15.8425 0.871428 15.6848 0.593316 15.4066C0.315204 15.1285 0.15745 14.7523 0.154033 14.359C0.150615 13.9657 0.301807 13.5868 0.575044 13.3039L5.87904 7.99992L0.575044 2.69592C0.293837 2.41463 0.135864 2.03317 0.135864 1.63542C0.135864 1.23768 0.293837 0.856213 0.575044 0.574922Z" fill="#353BCE"/>
</svg>
