<svg width="17" height="16" viewBox="0 0 17 16" fill="none" xmlns="http://www.w3.org/2000/svg">
<path d="M8.70898 1C6.8594 1.02231 5.09186 1.76698 3.78391 3.07493C2.47596 4.38287 1.7313 6.15042 1.70898 8C1.7313 9.84958 2.47596 11.6171 3.78391 12.9251C5.09186 14.233 6.8594 14.9777 8.70898 15C10.5586 14.9777 12.3261 14.233 13.6341 12.9251C14.942 11.6171 15.6867 9.84958 15.709 8C15.6867 6.15042 14.942 4.38287 13.6341 3.07493C12.3261 1.76698 10.5586 1.02231 8.70898 1ZM12.709 8.5H9.20898V12H8.20898V8.5H4.70898V7.5H8.20898V4H9.20898V7.5H12.709V8.5Z" fill="#353BCE"/>
</svg>
