<svg width="13" height="15" viewBox="0 0 13 15" fill="none" xmlns="http://www.w3.org/2000/svg">
<path d="M8.17055 9.45531C8.47721 10.4066 8.63255 11.2393 8.63255 11.9573C8.63255 13.556 8.00655 14.7886 6.96588 14.7886C6.43255 14.7886 6.24721 14.4886 6.04388 13.758L5.86388 13.0766C5.79721 12.838 5.67988 12.43 5.51321 11.8566C5.50875 11.8411 5.50201 11.8262 5.49321 11.8126L3.58255 8.82264C3.13043 8.1152 2.4633 7.57145 1.67921 7.27131L0.841212 6.95064C0.584941 6.85249 0.371469 6.66715 0.238322 6.4272C0.105175 6.18724 0.0608763 5.90803 0.113212 5.63864L0.570546 3.27997C0.624989 2.99845 0.758984 2.73843 0.956656 2.53071C1.15433 2.323 1.4074 2.17629 1.68588 2.10797L7.18588 0.760641C7.9966 0.562026 8.85296 0.691535 9.56869 1.121C10.2844 1.55047 10.8017 2.24515 11.0079 3.05397L12.0572 7.16864C12.1263 7.43935 12.1326 7.72227 12.0756 7.99579C12.0187 8.2693 11.8999 8.52618 11.7285 8.7468C11.5571 8.96742 11.3375 9.14595 11.0866 9.26874C10.8356 9.39153 10.5599 9.45535 10.2805 9.45531H8.17055Z" fill="#353BCE"/>
</svg>
