<svg width="12" height="15" viewBox="0 0 12 15" fill="none" xmlns="http://www.w3.org/2000/svg">
<path d="M1.65039 2.2001C1.65039 1.77575 1.81896 1.36878 2.11902 1.06873C2.41908 0.768669 2.82604 0.600098 3.25039 0.600098H6.91919C7.3435 0.600188 7.7504 0.768819 8.05039 1.0689L10.7816 3.8001C11.0817 4.10009 11.2503 4.50699 11.2504 4.9313V11.8001C11.2504 12.2244 11.0818 12.6314 10.7818 12.9315C10.4817 13.2315 10.0747 13.4001 9.65039 13.4001H8.42799C9.24544 12.4856 9.6818 11.2929 9.64748 10.0668C9.61317 8.84076 9.11079 7.67433 8.24348 6.80701C7.37616 5.9397 6.20973 5.43732 4.98364 5.403C3.75756 5.36869 2.56485 5.80505 1.65039 6.6225V2.2001Z" fill="#353BCE"/>
<path fill-rule="evenodd" clip-rule="evenodd" d="M4.84977 7.00012C4.2855 7.00004 3.73125 7.14917 3.2432 7.43238C2.75515 7.71559 2.35067 8.12282 2.07077 8.61278C1.79086 9.10273 1.64549 9.65798 1.64939 10.2222C1.65329 10.7865 1.80632 11.3397 2.09297 11.8257L1.08417 12.8337C1.00984 12.908 0.950873 12.9962 0.910626 13.0933C0.87038 13.1903 0.849647 13.2944 0.849609 13.3994C0.849572 13.5045 0.870232 13.6086 0.91041 13.7057C0.950588 13.8028 1.0095 13.891 1.08377 13.9653C1.15805 14.0396 1.24624 14.0986 1.3433 14.1389C1.44037 14.1791 1.54441 14.1998 1.64949 14.1999C1.75457 14.1999 1.85862 14.1793 1.95572 14.1391C2.05281 14.0989 2.14104 14.04 2.21537 13.9657L3.22417 12.9569C3.64805 13.2067 4.12382 13.3555 4.61452 13.3915C5.10522 13.4276 5.59762 13.35 6.05346 13.1648C6.5093 12.9796 6.91629 12.6918 7.24281 12.3237C7.56933 11.9557 7.80657 11.5173 7.93611 11.0426C8.06564 10.5679 8.08398 10.0698 7.98969 9.58688C7.8954 9.10398 7.69102 8.64933 7.39245 8.25825C7.09387 7.86718 6.70914 7.55022 6.26815 7.33202C5.82716 7.11382 5.34179 7.00024 4.84977 7.00012ZM3.24977 10.2001C3.24977 9.77578 3.41834 9.36881 3.7184 9.06875C4.01846 8.76869 4.42542 8.60012 4.84977 8.60012C5.27412 8.60012 5.68108 8.76869 5.98114 9.06875C6.2812 9.36881 6.44977 9.77578 6.44977 10.2001C6.44977 10.6245 6.2812 11.0314 5.98114 11.3315C5.68108 11.6316 5.27412 11.8001 4.84977 11.8001C4.42542 11.8001 4.01846 11.6316 3.7184 11.3315C3.41834 11.0314 3.24977 10.6245 3.24977 10.2001Z" fill="#353BCE"/>
</svg>
