<svg width="16" height="16" viewBox="0 0 16 16" fill="none" xmlns="http://www.w3.org/2000/svg">
<path d="M5.33203 2.66683V10.6668C5.33203 11.0205 5.47251 11.3596 5.72256 11.6096C5.9726 11.8597 6.31174 12.0002 6.66536 12.0002H11.9987C12.3523 12.0002 12.6915 11.8597 12.9415 11.6096C13.1916 11.3596 13.332 11.0205 13.332 10.6668V4.82816C13.332 4.65054 13.2965 4.4747 13.2276 4.31099C13.1587 4.14728 13.0577 3.99899 12.9307 3.87483L10.7207 1.7135C10.4716 1.46993 10.1371 1.33354 9.7887 1.3335H6.66536C6.31174 1.3335 5.9726 1.47397 5.72256 1.72402C5.47251 1.97407 5.33203 2.31321 5.33203 2.66683Z" fill="#353BCE" stroke="#353BCE" stroke-linecap="round" stroke-linejoin="round"/>
<path d="M10.666 12.0001V13.3335C10.666 13.6871 10.5255 14.0262 10.2755 14.2763C10.0254 14.5263 9.6863 14.6668 9.33268 14.6668H3.99935C3.64573 14.6668 3.30659 14.5263 3.05654 14.2763C2.80649 14.0262 2.66602 13.6871 2.66602 13.3335V6.00014C2.66602 5.64652 2.80649 5.30738 3.05654 5.05733C3.30659 4.80728 3.64573 4.66681 3.99935 4.66681H5.33268" stroke="#353BCE" stroke-linecap="round" stroke-linejoin="round"/>
</svg>
