<svg width="281" height="76" viewBox="0 0 281 76" fill="none" xmlns="http://www.w3.org/2000/svg">
<path d="M25.66 63.764C25.66 62.876 25.82 62.108 26.14 61.46C26.468 60.812 26.936 60.312 27.544 59.96C28.152 59.6 28.876 59.42 29.716 59.42C30.548 59.42 31.268 59.6 31.876 59.96C32.484 60.312 32.952 60.812 33.28 61.46C33.616 62.108 33.784 62.872 33.784 63.752C33.784 64.64 33.616 65.412 33.28 66.068C32.952 66.716 32.484 67.22 31.876 67.58C31.268 67.94 30.548 68.12 29.716 68.12C28.876 68.12 28.152 67.94 27.544 67.58C26.944 67.22 26.48 66.716 26.152 66.068C25.824 65.412 25.66 64.644 25.66 63.764ZM27.28 63.764C27.28 64.716 27.484 65.46 27.892 65.996C28.3 66.532 28.908 66.8 29.716 66.8C30.5 66.8 31.104 66.532 31.528 65.996C31.952 65.46 32.164 64.716 32.164 63.764C32.164 62.804 31.952 62.06 31.528 61.532C31.112 61.004 30.508 60.74 29.716 60.74C28.908 60.74 28.3 61.004 27.892 61.532C27.484 62.06 27.28 62.804 27.28 63.764ZM35.2973 68V61.94H40.9733V68H39.4853V63.092H36.7853V68H35.2973ZM42.7281 70.592V63.452C42.7281 63.204 42.7201 62.952 42.7041 62.696C42.6881 62.44 42.6641 62.188 42.6321 61.94H44.0841L44.2161 63.212H44.0841C44.2041 62.788 44.4561 62.452 44.8401 62.204C45.2321 61.948 45.6841 61.82 46.1961 61.82C46.7321 61.82 47.2001 61.948 47.6001 62.204C48.0001 62.452 48.3121 62.812 48.5361 63.284C48.7601 63.748 48.8721 64.308 48.8721 64.964C48.8721 65.62 48.7601 66.184 48.5361 66.656C48.3121 67.128 48.0001 67.492 47.6001 67.748C47.2001 67.996 46.7321 68.12 46.1961 68.12C45.6921 68.12 45.2481 67.996 44.8641 67.748C44.4801 67.5 44.2241 67.168 44.0961 66.752H44.2281V70.592H42.7281ZM45.7761 66.968C46.2561 66.968 46.6401 66.804 46.9281 66.476C47.2161 66.14 47.3601 65.636 47.3601 64.964C47.3601 64.292 47.2161 63.792 46.9281 63.464C46.6401 63.136 46.2561 62.972 45.7761 62.972C45.3041 62.972 44.9241 63.136 44.6361 63.464C44.3481 63.792 44.2041 64.292 44.2041 64.964C44.2041 65.636 44.3481 66.14 44.6361 66.476C44.9241 66.804 45.3041 66.968 45.7761 66.968ZM53.2616 68.12C52.2456 68.12 51.4496 67.84 50.8736 67.28C50.2976 66.72 50.0096 65.952 50.0096 64.976C50.0096 64.344 50.1336 63.792 50.3816 63.32C50.6296 62.848 50.9736 62.48 51.4136 62.216C51.8616 61.952 52.3816 61.82 52.9736 61.82C53.5576 61.82 54.0456 61.944 54.4376 62.192C54.8296 62.44 55.1256 62.788 55.3256 63.236C55.5336 63.684 55.6376 64.208 55.6376 64.808V65.204H51.2216V64.412H54.5696L54.3656 64.58C54.3656 64.02 54.2456 63.592 54.0056 63.296C53.7736 63 53.4336 62.852 52.9856 62.852C52.4896 62.852 52.1056 63.028 51.8336 63.38C51.5696 63.732 51.4376 64.224 51.4376 64.856V65.012C51.4376 65.668 51.5976 66.16 51.9176 66.488C52.2456 66.808 52.7056 66.968 53.2976 66.968C53.6416 66.968 53.9616 66.924 54.2576 66.836C54.5616 66.74 54.8496 66.588 55.1216 66.38L55.5656 67.388C55.2776 67.62 54.9336 67.8 54.5336 67.928C54.1336 68.056 53.7096 68.12 53.2616 68.12ZM56.4839 69.56V66.86H57.1799C57.4199 66.484 57.5919 66.044 57.6959 65.54C57.8079 65.028 57.8639 64.404 57.8639 63.668V61.94H62.5319V66.86H63.5159V69.56H62.2439V68H57.7559V69.56H56.4839ZM58.5239 66.872H61.1279V63.068H59.1359V64.004C59.1359 64.54 59.0839 65.064 58.9799 65.576C58.8759 66.088 58.7239 66.52 58.5239 66.872ZM67.5936 68.12C66.5776 68.12 65.7816 67.84 65.2056 67.28C64.6296 66.72 64.3416 65.952 64.3416 64.976C64.3416 64.344 64.4656 63.792 64.7136 63.32C64.9616 62.848 65.3056 62.48 65.7456 62.216C66.1936 61.952 66.7136 61.82 67.3056 61.82C67.8896 61.82 68.3776 61.944 68.7696 62.192C69.1616 62.44 69.4576 62.788 69.6576 63.236C69.8656 63.684 69.9696 64.208 69.9696 64.808V65.204H65.5536V64.412H68.9016L68.6976 64.58C68.6976 64.02 68.5776 63.592 68.3376 63.296C68.1056 63 67.7656 62.852 67.3176 62.852C66.8216 62.852 66.4376 63.028 66.1656 63.38C65.9016 63.732 65.7696 64.224 65.7696 64.856V65.012C65.7696 65.668 65.9296 66.16 66.2496 66.488C66.5776 66.808 67.0376 66.968 67.6296 66.968C67.9736 66.968 68.2936 66.924 68.5896 66.836C68.8936 66.74 69.1816 66.588 69.4536 66.38L69.8976 67.388C69.6096 67.62 69.2656 67.8 68.8656 67.928C68.4656 68.056 68.0416 68.12 67.5936 68.12ZM71.1999 68.168L70.7319 66.992C70.9959 66.896 71.2159 66.772 71.3919 66.62C71.5759 66.46 71.7199 66.26 71.8239 66.02C71.9359 65.772 72.0159 65.468 72.0639 65.108C72.1119 64.74 72.1359 64.304 72.1359 63.8V61.94H76.9599V68H75.4719V63.092H73.5039V63.848C73.5039 64.72 73.4239 65.452 73.2639 66.044C73.1039 66.628 72.8559 67.092 72.5199 67.436C72.1839 67.78 71.7439 68.024 71.1999 68.168ZM78.6684 68V61.94H80.0244V66.524H79.6644L83.1084 61.94H84.3444V68H82.9884V63.404H83.3604L79.9044 68H78.6684ZM87.3592 68V63.116H85.2832V61.94H90.9352V63.116H88.8472V68H87.3592ZM91.8637 68V61.94H93.3517V63.968H94.9477C95.7557 63.968 96.3637 64.14 96.7717 64.484C97.1797 64.82 97.3837 65.308 97.3837 65.948C97.3837 66.364 97.2877 66.728 97.0957 67.04C96.9037 67.344 96.6237 67.58 96.2557 67.748C95.8957 67.916 95.4597 68 94.9477 68H91.8637ZM93.3517 67.016H94.7437C95.1517 67.016 95.4637 66.932 95.6797 66.764C95.8957 66.588 96.0037 66.324 96.0037 65.972C96.0037 65.62 95.8957 65.364 95.6797 65.204C95.4717 65.036 95.1597 64.952 94.7437 64.952H93.3517V67.016ZM104.714 68.12C104.09 68.12 103.55 67.992 103.094 67.736C102.638 67.48 102.282 67.116 102.026 66.644C101.778 66.172 101.654 65.612 101.654 64.964C101.654 64.316 101.778 63.76 102.026 63.296C102.282 62.824 102.638 62.46 103.094 62.204C103.55 61.948 104.09 61.82 104.714 61.82C105.338 61.82 105.878 61.948 106.334 62.204C106.798 62.46 107.154 62.824 107.402 63.296C107.658 63.76 107.786 64.316 107.786 64.964C107.786 65.612 107.658 66.172 107.402 66.644C107.154 67.116 106.798 67.48 106.334 67.736C105.878 67.992 105.338 68.12 104.714 68.12ZM104.714 66.968C105.186 66.968 105.562 66.804 105.842 66.476C106.122 66.14 106.262 65.636 106.262 64.964C106.262 64.292 106.122 63.792 105.842 63.464C105.562 63.136 105.186 62.972 104.714 62.972C104.242 62.972 103.866 63.136 103.586 63.464C103.306 63.792 103.166 64.292 103.166 64.964C103.166 65.636 103.306 66.14 103.586 66.476C103.866 66.804 104.242 66.968 104.714 66.968ZM112.051 68.12C111.099 68.12 110.339 67.832 109.771 67.256C109.211 66.68 108.931 65.836 108.931 64.724V63.692C108.931 62.548 109.191 61.628 109.711 60.932C110.231 60.236 111.015 59.776 112.063 59.552L114.283 59.048L114.691 60.224L112.195 60.776C111.779 60.864 111.435 61.032 111.163 61.28C110.891 61.52 110.687 61.808 110.551 62.144C110.415 62.48 110.347 62.84 110.347 63.224V63.86H110.143C110.231 63.5 110.379 63.188 110.587 62.924C110.795 62.652 111.059 62.44 111.379 62.288C111.699 62.136 112.063 62.06 112.471 62.06C112.983 62.06 113.431 62.18 113.815 62.42C114.207 62.652 114.515 62.992 114.739 63.44C114.963 63.88 115.075 64.408 115.075 65.024C115.075 65.656 114.947 66.204 114.691 66.668C114.443 67.132 114.091 67.492 113.635 67.748C113.187 67.996 112.659 68.12 112.051 68.12ZM112.003 66.98C112.499 66.98 112.883 66.824 113.155 66.512C113.435 66.192 113.575 65.716 113.575 65.084C113.575 64.468 113.435 64 113.155 63.68C112.875 63.352 112.491 63.188 112.003 63.188C111.515 63.188 111.131 63.348 110.851 63.668C110.571 63.988 110.431 64.444 110.431 65.036C110.431 65.684 110.571 66.172 110.851 66.5C111.131 66.82 111.515 66.98 112.003 66.98ZM117.529 68V63.116H115.729V61.94H119.017V63.968H120.601C121.409 63.968 122.017 64.14 122.425 64.484C122.841 64.82 123.049 65.308 123.049 65.948C123.049 66.364 122.953 66.728 122.761 67.04C122.569 67.344 122.289 67.58 121.921 67.748C121.561 67.916 121.121 68 120.601 68H117.529ZM119.017 67.016H120.409C120.809 67.016 121.117 66.932 121.333 66.764C121.557 66.588 121.669 66.324 121.669 65.972C121.669 65.62 121.561 65.364 121.345 65.204C121.129 65.036 120.817 64.952 120.409 64.952H119.017V67.016ZM127.277 68.12C126.261 68.12 125.465 67.84 124.889 67.28C124.313 66.72 124.025 65.952 124.025 64.976C124.025 64.344 124.149 63.792 124.397 63.32C124.645 62.848 124.989 62.48 125.429 62.216C125.877 61.952 126.397 61.82 126.989 61.82C127.573 61.82 128.061 61.944 128.453 62.192C128.845 62.44 129.141 62.788 129.341 63.236C129.549 63.684 129.653 64.208 129.653 64.808V65.204H125.237V64.412H128.585L128.381 64.58C128.381 64.02 128.261 63.592 128.021 63.296C127.789 63 127.449 62.852 127.001 62.852C126.505 62.852 126.121 63.028 125.849 63.38C125.585 63.732 125.453 64.224 125.453 64.856V65.012C125.453 65.668 125.613 66.16 125.933 66.488C126.261 66.808 126.721 66.968 127.313 66.968C127.657 66.968 127.977 66.924 128.273 66.836C128.577 66.74 128.865 66.588 129.137 66.38L129.581 67.388C129.293 67.62 128.949 67.8 128.549 67.928C128.149 68.056 127.725 68.12 127.277 68.12ZM131.04 68V61.94H132.288L134.376 65.564L136.464 61.94H137.712V68H136.392V63.62H136.668L134.724 67.016H134.028L132.084 63.62H132.36V68H131.04ZM145.099 68.12C144.571 68.12 144.107 67.996 143.707 67.748C143.307 67.492 142.995 67.128 142.771 66.656C142.547 66.184 142.435 65.62 142.435 64.964C142.435 64.308 142.547 63.748 142.771 63.284C142.995 62.812 143.307 62.452 143.707 62.204C144.107 61.948 144.571 61.82 145.099 61.82C145.611 61.82 146.059 61.948 146.443 62.204C146.835 62.452 147.095 62.788 147.223 63.212H147.091L147.223 61.94H148.663C148.639 62.188 148.615 62.44 148.591 62.696C148.575 62.952 148.567 63.204 148.567 63.452V68H147.079L147.067 66.752H147.211C147.083 67.168 146.823 67.5 146.431 67.748C146.039 67.996 145.595 68.12 145.099 68.12ZM145.519 66.968C145.991 66.968 146.371 66.804 146.659 66.476C146.947 66.14 147.091 65.636 147.091 64.964C147.091 64.292 146.947 63.792 146.659 63.464C146.371 63.136 145.991 62.972 145.519 62.972C145.047 62.972 144.667 63.136 144.379 63.464C144.091 63.792 143.947 64.292 143.947 64.964C143.947 65.636 144.087 66.14 144.367 66.476C144.655 66.804 145.039 66.968 145.519 66.968ZM150.317 68V61.94H153.545C154.305 61.94 154.861 62.08 155.213 62.36C155.565 62.632 155.741 63.02 155.741 63.524C155.741 63.908 155.613 64.228 155.357 64.484C155.101 64.74 154.761 64.9 154.337 64.964V64.796C154.857 64.828 155.257 64.98 155.537 65.252C155.817 65.524 155.957 65.876 155.957 66.308C155.957 66.828 155.757 67.24 155.357 67.544C154.957 67.848 154.389 68 153.653 68H150.317ZM151.709 67.076H153.497C153.849 67.076 154.117 67.004 154.301 66.86C154.493 66.716 154.589 66.504 154.589 66.224C154.589 65.944 154.493 65.732 154.301 65.588C154.117 65.444 153.849 65.372 153.497 65.372H151.709V67.076ZM151.709 64.448H153.365C153.685 64.448 153.933 64.38 154.109 64.244C154.285 64.1 154.373 63.9 154.373 63.644C154.373 63.388 154.285 63.192 154.109 63.056C153.933 62.92 153.685 62.852 153.365 62.852H151.709V64.448ZM158.691 68V63.116H156.615V61.94H162.267V63.116H160.179V68H158.691ZM165.921 68.12C165.297 68.12 164.757 67.992 164.301 67.736C163.845 67.48 163.489 67.116 163.233 66.644C162.985 66.172 162.861 65.612 162.861 64.964C162.861 64.316 162.985 63.76 163.233 63.296C163.489 62.824 163.845 62.46 164.301 62.204C164.757 61.948 165.297 61.82 165.921 61.82C166.545 61.82 167.085 61.948 167.541 62.204C168.005 62.46 168.361 62.824 168.609 63.296C168.865 63.76 168.993 64.316 168.993 64.964C168.993 65.612 168.865 66.172 168.609 66.644C168.361 67.116 168.005 67.48 167.541 67.736C167.085 67.992 166.545 68.12 165.921 68.12ZM165.921 66.968C166.393 66.968 166.769 66.804 167.049 66.476C167.329 66.14 167.469 65.636 167.469 64.964C167.469 64.292 167.329 63.792 167.049 63.464C166.769 63.136 166.393 62.972 165.921 62.972C165.449 62.972 165.073 63.136 164.793 63.464C164.513 63.792 164.373 64.292 164.373 64.964C164.373 65.636 164.513 66.14 164.793 66.476C165.073 66.804 165.449 66.968 165.921 66.968ZM170.415 68V61.94H171.663L173.751 65.564L175.839 61.94H177.087V68H175.767V63.62H176.043L174.099 67.016H173.403L171.459 63.62H171.735V68H170.415ZM181.181 68.12C180.653 68.12 180.189 67.996 179.789 67.748C179.389 67.492 179.077 67.128 178.853 66.656C178.629 66.184 178.517 65.62 178.517 64.964C178.517 64.308 178.629 63.748 178.853 63.284C179.077 62.812 179.389 62.452 179.789 62.204C180.189 61.948 180.653 61.82 181.181 61.82C181.693 61.82 182.141 61.948 182.525 62.204C182.917 62.452 183.177 62.788 183.305 63.212H183.173L183.305 61.94H184.745C184.721 62.188 184.697 62.44 184.673 62.696C184.657 62.952 184.649 63.204 184.649 63.452V68H183.161L183.149 66.752H183.293C183.165 67.168 182.905 67.5 182.513 67.748C182.121 67.996 181.677 68.12 181.181 68.12ZM181.601 66.968C182.073 66.968 182.453 66.804 182.741 66.476C183.029 66.14 183.173 65.636 183.173 64.964C183.173 64.292 183.029 63.792 182.741 63.464C182.453 63.136 182.073 62.972 181.601 62.972C181.129 62.972 180.749 63.136 180.461 63.464C180.173 63.792 180.029 64.292 180.029 64.964C180.029 65.636 180.169 66.14 180.449 66.476C180.737 66.804 181.121 66.968 181.601 66.968ZM187.707 68V63.116H185.631V61.94H191.283V63.116H189.195V68H187.707ZM192.211 68V61.94H193.567V66.524H193.207L196.651 61.94H197.887V68H196.531V63.404H196.903L193.447 68H192.211ZM203.446 68V65.792C203.222 65.896 202.99 65.976 202.75 66.032C202.51 66.088 202.258 66.116 201.994 66.116C201.106 66.116 200.442 65.904 200.002 65.48C199.57 65.056 199.354 64.424 199.354 63.584V61.94H200.842V63.452C200.842 63.964 200.954 64.336 201.178 64.568C201.402 64.792 201.762 64.904 202.258 64.904C202.49 64.904 202.698 64.88 202.882 64.832C203.066 64.784 203.242 64.708 203.41 64.604V61.94H204.898V68H203.446ZM209.578 68.12C208.562 68.12 207.766 67.84 207.19 67.28C206.614 66.72 206.326 65.952 206.326 64.976C206.326 64.344 206.45 63.792 206.698 63.32C206.946 62.848 207.29 62.48 207.73 62.216C208.178 61.952 208.698 61.82 209.29 61.82C209.874 61.82 210.362 61.944 210.754 62.192C211.146 62.44 211.442 62.788 211.642 63.236C211.85 63.684 211.954 64.208 211.954 64.808V65.204H207.538V64.412H210.886L210.682 64.58C210.682 64.02 210.562 63.592 210.322 63.296C210.09 63 209.75 62.852 209.302 62.852C208.806 62.852 208.422 63.028 208.15 63.38C207.886 63.732 207.754 64.224 207.754 64.856V65.012C207.754 65.668 207.914 66.16 208.234 66.488C208.562 66.808 209.022 66.968 209.614 66.968C209.958 66.968 210.278 66.924 210.574 66.836C210.878 66.74 211.166 66.588 211.438 66.38L211.882 67.388C211.594 67.62 211.25 67.8 210.85 67.928C210.45 68.056 210.026 68.12 209.578 68.12ZM216.172 68.12C215.548 68.12 215 67.992 214.528 67.736C214.064 67.48 213.704 67.116 213.448 66.644C213.192 66.164 213.064 65.596 213.064 64.94C213.064 64.284 213.192 63.724 213.448 63.26C213.712 62.796 214.076 62.44 214.54 62.192C215.004 61.944 215.548 61.82 216.172 61.82C216.572 61.82 216.96 61.884 217.336 62.012C217.72 62.132 218.032 62.308 218.272 62.54L217.816 63.584C217.6 63.384 217.356 63.236 217.084 63.14C216.82 63.036 216.56 62.984 216.304 62.984C215.768 62.984 215.348 63.152 215.044 63.488C214.748 63.824 214.6 64.312 214.6 64.952C214.6 65.592 214.748 66.084 215.044 66.428C215.348 66.772 215.768 66.944 216.304 66.944C216.552 66.944 216.808 66.896 217.072 66.8C217.344 66.704 217.592 66.556 217.816 66.356L218.272 67.388C218.024 67.62 217.708 67.8 217.324 67.928C216.948 68.056 216.564 68.12 216.172 68.12ZM219.551 68V61.94H221.039V64.316H221.951L223.727 61.94H225.335L223.103 64.964L222.779 64.496C223.003 64.52 223.199 64.58 223.367 64.676C223.543 64.772 223.707 64.908 223.859 65.084C224.019 65.252 224.175 65.468 224.327 65.732L225.599 68H224.003L222.971 66.176C222.867 65.992 222.763 65.848 222.659 65.744C222.555 65.64 222.439 65.568 222.311 65.528C222.183 65.488 222.027 65.468 221.843 65.468H221.039V68H219.551ZM226.395 68V61.94H227.751V66.524H227.391L230.835 61.94H232.071V68H230.715V63.404H231.087L227.631 68H226.395Z" fill="#3A3E87"/>
<circle cx="7.5" cy="63.5" r="6.75" stroke="#353BCE" stroke-width="1.5"/>
<path d="M5.43466 17.1392C5.01705 17.1326 4.59943 17.053 4.18182 16.9006C3.7642 16.7481 3.38305 16.4912 3.03835 16.13C2.69366 15.7654 2.4169 15.2732 2.2081 14.6534C1.99929 14.0303 1.89489 13.2481 1.89489 12.3068C1.89489 11.4053 1.9794 10.6065 2.14844 9.91051C2.31747 9.21117 2.56274 8.62287 2.88423 8.1456C3.20573 7.66501 3.59351 7.30043 4.04759 7.05185C4.50497 6.80327 5.02036 6.67898 5.59375 6.67898C6.16383 6.67898 6.67093 6.79332 7.11506 7.02202C7.5625 7.2474 7.92708 7.56226 8.20881 7.96662C8.49053 8.37098 8.67282 8.83665 8.75568 9.36364H7.54261C7.42992 8.90625 7.21117 8.52675 6.88636 8.22514C6.56155 7.92353 6.13068 7.77273 5.59375 7.77273C4.80492 7.77273 4.18348 8.11577 3.7294 8.80185C3.27865 9.48793 3.05161 10.4508 3.0483 11.6903H3.12784C3.31345 11.4086 3.53385 11.1683 3.78906 10.9695C4.04759 10.7673 4.33262 10.6115 4.64418 10.5021C4.95573 10.3928 5.28551 10.3381 5.63352 10.3381C6.21686 10.3381 6.75047 10.4839 7.23438 10.7756C7.71828 11.0639 8.10606 11.4633 8.39773 11.9737C8.68939 12.4808 8.83523 13.0625 8.83523 13.7188C8.83523 14.3485 8.69437 14.9252 8.41264 15.4489C8.13092 15.9692 7.73485 16.3835 7.22443 16.6918C6.71733 16.9967 6.12074 17.1458 5.43466 17.1392ZM5.43466 16.0455C5.85227 16.0455 6.2268 15.9411 6.55824 15.7322C6.89299 15.5234 7.15649 15.2434 7.34872 14.892C7.54427 14.5407 7.64205 14.1496 7.64205 13.7188C7.64205 13.2978 7.54759 12.915 7.35866 12.5703C7.17306 12.2223 6.91619 11.9455 6.58807 11.7401C6.26326 11.5346 5.89205 11.4318 5.47443 11.4318C5.15956 11.4318 4.86624 11.4948 4.59446 11.6207C4.32268 11.7434 4.08404 11.9124 3.87855 12.1278C3.67637 12.3433 3.51728 12.5902 3.40128 12.8686C3.28527 13.1437 3.22727 13.4337 3.22727 13.7386C3.22727 14.143 3.32173 14.5208 3.51065 14.8722C3.70289 15.2235 3.96473 15.5069 4.29616 15.7223C4.63092 15.9377 5.01042 16.0455 5.43466 16.0455ZM14.0273 17.1392C13.2783 17.1392 12.6403 16.9354 12.1133 16.5277C11.5863 16.1167 11.1836 15.5218 10.9052 14.7429C10.6268 13.9607 10.4876 13.0161 10.4876 11.9091C10.4876 10.8087 10.6268 9.86908 10.9052 9.0902C11.1869 8.308 11.5912 7.71141 12.1182 7.30043C12.6485 6.88613 13.2849 6.67898 14.0273 6.67898C14.7698 6.67898 15.4045 6.88613 15.9314 7.30043C16.4618 7.71141 16.8661 8.308 17.1445 9.0902C17.4262 9.86908 17.5671 10.8087 17.5671 11.9091C17.5671 13.0161 17.4279 13.9607 17.1495 14.7429C16.8711 15.5218 16.4684 16.1167 15.9414 16.5277C15.4144 16.9354 14.7764 17.1392 14.0273 17.1392ZM14.0273 16.0455C14.7698 16.0455 15.3465 15.6875 15.7574 14.9716C16.1684 14.2557 16.3739 13.2348 16.3739 11.9091C16.3739 11.0275 16.2795 10.2768 16.0905 9.65696C15.9049 9.03717 15.6365 8.56487 15.2851 8.24006C14.9371 7.91525 14.5179 7.75284 14.0273 7.75284C13.2915 7.75284 12.7165 8.11577 12.3022 8.84162C11.8879 9.56416 11.6807 10.5866 11.6807 11.9091C11.6807 12.7907 11.7735 13.5398 11.9591 14.1562C12.1448 14.7727 12.4116 15.2417 12.7596 15.5632C13.1109 15.8847 13.5335 16.0455 14.0273 16.0455Z" fill="#3F44D0"/>
<path d="M250.72 17.1392C250.137 17.1392 249.612 17.0232 249.144 16.7912C248.677 16.5592 248.302 16.241 248.021 15.8366C247.739 15.4323 247.585 14.9716 247.558 14.4545H248.751C248.798 14.9152 249.007 15.2964 249.378 15.598C249.752 15.8963 250.2 16.0455 250.72 16.0455C251.138 16.0455 251.509 15.9477 251.834 15.7521C252.162 15.5566 252.419 15.2881 252.604 14.9467C252.793 14.602 252.888 14.2126 252.888 13.7784C252.888 13.3343 252.79 12.9382 252.595 12.5902C252.402 12.2389 252.137 11.9621 251.799 11.7599C251.461 11.5578 251.075 11.455 250.641 11.4517C250.329 11.4484 250.009 11.4964 249.681 11.5959C249.353 11.692 249.083 11.8163 248.871 11.9688L247.717 11.8295L248.334 6.81818H253.624V7.91193H249.368L249.01 10.9148H249.07C249.278 10.7491 249.54 10.6115 249.855 10.5021C250.17 10.3928 250.498 10.3381 250.84 10.3381C251.463 10.3381 252.018 10.4872 252.505 10.7855C252.996 11.0805 253.38 11.4848 253.658 11.9986C253.94 12.5123 254.081 13.099 254.081 13.7585C254.081 14.4081 253.935 14.9882 253.644 15.4986C253.355 16.0057 252.957 16.4067 252.45 16.7017C251.943 16.9934 251.367 17.1392 250.72 17.1392ZM259.293 17.1392C258.544 17.1392 257.906 16.9354 257.379 16.5277C256.852 16.1167 256.449 15.5218 256.171 14.7429C255.892 13.9607 255.753 13.0161 255.753 11.9091C255.753 10.8087 255.892 9.86908 256.171 9.0902C256.453 8.308 256.857 7.71141 257.384 7.30043C257.914 6.88613 258.551 6.67898 259.293 6.67898C260.035 6.67898 260.67 6.88613 261.197 7.30043C261.727 7.71141 262.132 8.308 262.41 9.0902C262.692 9.86908 262.833 10.8087 262.833 11.9091C262.833 13.0161 262.694 13.9607 262.415 14.7429C262.137 15.5218 261.734 16.1167 261.207 16.5277C260.68 16.9354 260.042 17.1392 259.293 17.1392ZM259.293 16.0455C260.035 16.0455 260.612 15.6875 261.023 14.9716C261.434 14.2557 261.64 13.2348 261.64 11.9091C261.64 11.0275 261.545 10.2768 261.356 9.65696C261.171 9.03717 260.902 8.56487 260.551 8.24006C260.203 7.91525 259.784 7.75284 259.293 7.75284C258.557 7.75284 257.982 8.11577 257.568 8.84162C257.154 9.56416 256.946 10.5866 256.946 11.9091C256.946 12.7907 257.039 13.5398 257.225 14.1562C257.41 14.7727 257.677 15.2417 258.025 15.5632C258.377 15.8847 258.799 16.0455 259.293 16.0455ZM267.959 17.1392C267.21 17.1392 266.572 16.9354 266.045 16.5277C265.518 16.1167 265.115 15.5218 264.837 14.7429C264.558 13.9607 264.419 13.0161 264.419 11.9091C264.419 10.8087 264.558 9.86908 264.837 9.0902C265.119 8.308 265.523 7.71141 266.05 7.30043C266.58 6.88613 267.217 6.67898 267.959 6.67898C268.701 6.67898 269.336 6.88613 269.863 7.30043C270.393 7.71141 270.798 8.308 271.076 9.0902C271.358 9.86908 271.499 10.8087 271.499 11.9091C271.499 13.0161 271.36 13.9607 271.081 14.7429C270.803 15.5218 270.4 16.1167 269.873 16.5277C269.346 16.9354 268.708 17.1392 267.959 17.1392ZM267.959 16.0455C268.701 16.0455 269.278 15.6875 269.689 14.9716C270.1 14.2557 270.306 13.2348 270.306 11.9091C270.306 11.0275 270.211 10.2768 270.022 9.65696C269.837 9.03717 269.568 8.56487 269.217 8.24006C268.869 7.91525 268.45 7.75284 267.959 7.75284C267.223 7.75284 266.648 8.11577 266.234 8.84162C265.82 9.56416 265.612 10.5866 265.612 11.9091C265.612 12.7907 265.705 13.5398 265.891 14.1562C266.076 14.7727 266.343 15.2417 266.691 15.5632C267.043 15.8847 267.465 16.0455 267.959 16.0455ZM276.625 17.1392C275.876 17.1392 275.238 16.9354 274.711 16.5277C274.184 16.1167 273.781 15.5218 273.503 14.7429C273.224 13.9607 273.085 13.0161 273.085 11.9091C273.085 10.8087 273.224 9.86908 273.503 9.0902C273.785 8.308 274.189 7.71141 274.716 7.30043C275.246 6.88613 275.883 6.67898 276.625 6.67898C277.367 6.67898 278.002 6.88613 278.529 7.30043C279.059 7.71141 279.464 8.308 279.742 9.0902C280.024 9.86908 280.165 10.8087 280.165 11.9091C280.165 13.0161 280.026 13.9607 279.747 14.7429C279.469 15.5218 279.066 16.1167 278.539 16.5277C278.012 16.9354 277.374 17.1392 276.625 17.1392ZM276.625 16.0455C277.367 16.0455 277.944 15.6875 278.355 14.9716C278.766 14.2557 278.972 13.2348 278.972 11.9091C278.972 11.0275 278.877 10.2768 278.688 9.65696C278.503 9.03717 278.234 8.56487 277.883 8.24006C277.535 7.91525 277.116 7.75284 276.625 7.75284C275.889 7.75284 275.314 8.11577 274.9 8.84162C274.486 9.56416 274.278 10.5866 274.278 11.9091C274.278 12.7907 274.371 13.5398 274.557 14.1562C274.742 14.7727 275.009 15.2417 275.357 15.5632C275.709 15.8847 276.131 16.0455 276.625 16.0455Z" fill="#3F44D0"/>
<path d="M1 32C1 31.4477 1.44772 31 2 31H280C280.552 31 281 31.4477 281 32V32C281 32.5523 280.552 33 280 33H2.00001C1.44772 33 1 32.5523 1 32V32Z" fill="#DDE2E4"/>
<path d="M11 31H57V33H11V31Z" fill="#3F44D0"/>
<path d="M1 31C1 28.7909 2.79086 27 5 27H11V37H5C2.79086 37 1 35.2091 1 33V31Z" fill="#3F44D0"/>
<path d="M57 27H63C65.2091 27 67 28.7909 67 31V33C67 35.2091 65.2091 37 63 37H57V27Z" fill="#3F44D0"/>
</svg>
