<svg width="40" height="40" viewBox="0 0 40 40" fill="none" xmlns="http://www.w3.org/2000/svg">
    <path d="M0 20C0 8.95431 8.95431 0 20 0C31.0457 0 40 8.95431 40 20C40 31.0457 31.0457 40 20 40C8.95431 40 0 31.0457 0 20Z" fill="#D7EDFF"/>
    <path d="M7.59922 26L4.31513 14.3636H6.58217L8.67876 22.9148H8.78672L11.0254 14.3636H13.0879L15.3322 22.9205H15.4344L17.531 14.3636H19.7981L16.514 26H14.4344L12.1049 17.8352H12.014L9.67876 26H7.59922ZM23.4846 26L20.2005 14.3636H22.4675L24.5641 22.9148H24.6721L26.9107 14.3636H28.9732L31.2175 22.9205H31.3198L33.4164 14.3636H35.6835L32.3994 26H30.3198L27.9903 17.8352H27.8994L25.5641 26H23.4846Z" fill="#0452C8"/>
    <rect x="27" y="27" width="12" height="12" rx="6" fill="#F76659"/>
    <rect x="27" y="27" width="12" height="12" rx="6" stroke="white" stroke-width="2"/>
</svg>
