<svg width="14" height="14" viewBox="0 0 14 14" fill="none" xmlns="http://www.w3.org/2000/svg">
<path d="M6.97814 0.4375C4.13439 0.4375 1.70626 2.275 0.809387 4.8125H13.1906C12.2719 2.275 9.84376 0.4375 6.97814 0.4375Z" fill="#F9F9F9"/>
<path d="M6.97814 13.5625C9.84376 13.5625 12.2719 11.725 13.1688 9.1875H0.809387C1.70626 11.7469 4.13439 13.5625 6.97814 13.5625Z" fill="#ED4C5C"/>
<path d="M0.809375 4.8125C0.56875 5.49062 0.4375 6.23438 0.4375 7C0.4375 7.76562 0.56875 8.50938 0.809375 9.1875H13.1906C13.4312 8.50938 13.5625 7.76562 13.5625 7C13.5625 6.23438 13.4312 5.49062 13.1906 4.8125H0.809375Z" fill="#428BC1"/>
<circle cx="7" cy="7" r="6.9" stroke="black" stroke-width="0.2"/>
</svg>
