<svg width="14" height="14" viewBox="0 0 14 14" fill="none" xmlns="http://www.w3.org/2000/svg">
<path d="M4.81251 13.1906V10.1719L2.55939 11.8344C3.19376 12.425 3.95939 12.8844 4.81251 13.1906ZM9.18751 13.1906C10.0406 12.8844 10.8063 12.425 11.4406 11.8344L9.18751 10.15V13.1906ZM0.809387 9.1875C0.875012 9.40625 0.962512 9.60313 1.07189 9.82188L1.92501 9.1875H0.809387ZM12.075 9.1875L12.9281 9.82188C13.0156 9.625 13.1031 9.40625 13.1906 9.1875H12.075Z" fill="#2A5F9E"/>
<path d="M5.14063 8.3125H0.568756C0.634381 8.61875 0.721881 8.90313 0.809381 9.1875H1.92501L1.07188 9.82188C1.24688 10.1938 1.44376 10.5219 1.68438 10.85L3.93751 9.1875H4.81251V9.625L2.25313 11.5062L2.55938 11.8125L4.81251 10.1719V13.1906C5.09688 13.3 5.38126 13.3656 5.68751 13.4313V8.3125H5.14063ZM13.4313 8.3125H8.31251V13.4313C8.61876 13.3656 8.90313 13.2781 9.18751 13.1906V10.1719L11.4406 11.8125C11.7469 11.5281 12.0094 11.2219 12.2719 10.8937L9.93126 9.1875H11.4188L12.7531 10.1719C12.8188 10.0625 12.8844 9.93125 12.9281 9.82188L12.075 9.1875H13.1906C13.2781 8.90313 13.3656 8.61875 13.4313 8.3125Z" fill="white"/>
<path d="M1.68439 10.85C1.85939 11.0906 2.03439 11.3094 2.23126 11.5281L4.81251 9.64687V9.20937H3.93751L1.68439 10.85ZM9.95314 9.1875L12.2938 10.8937C12.3813 10.7844 12.4469 10.675 12.5344 10.5656C12.5563 10.5437 12.5563 10.5219 12.5781 10.5219C12.6438 10.4125 12.7313 10.2812 12.7969 10.1719L11.4188 9.1875H9.95314Z" fill="#ED4C5C"/>
<path d="M9.18751 0.809372V3.82812L11.4406 2.16562C10.8063 1.575 10.0406 1.11562 9.18751 0.809372ZM4.81251 0.809372C3.95939 1.11562 3.19376 1.575 2.55939 2.16562L4.81251 3.85V0.809372ZM13.1906 4.8125C13.125 4.59375 13.0375 4.39687 12.9281 4.17812L12.075 4.8125H13.1906ZM1.92501 4.8125L1.07189 4.17812C0.984387 4.39687 0.896887 4.59375 0.809387 4.8125H1.92501Z" fill="#2A5F9E"/>
<path d="M8.85938 5.68751H13.4094C13.3438 5.38126 13.2563 5.09688 13.1688 4.81251H12.0531L12.9063 4.17813C12.7313 3.80626 12.5344 3.47813 12.2938 3.15001L10.0625 4.81251H9.18751V4.37501L11.7469 2.49376L11.4406 2.18751L9.18751 3.82813V0.809381C8.90313 0.700006 8.61876 0.634381 8.31251 0.568756V5.68751H8.85938ZM0.568756 5.68751H5.68751V0.568756C5.38126 0.634381 5.09688 0.721881 4.81251 0.809381V3.82813L2.55938 2.18751C2.25313 2.47188 1.99063 2.77813 1.72813 3.10626L4.06876 4.81251H2.58126L1.24688 3.82813C1.18126 3.93751 1.11563 4.06876 1.07188 4.17813L1.92501 4.81251H0.809381C0.721881 5.09688 0.634381 5.38126 0.568756 5.68751Z" fill="white"/>
<path d="M12.3156 3.15C12.1406 2.90938 11.9656 2.69063 11.7688 2.47188L9.18751 4.35313V4.79063H10.0625L12.3156 3.15ZM4.04688 4.8125L1.72813 3.10625C1.64063 3.21563 1.57501 3.325 1.48751 3.43438C1.46563 3.45625 1.46563 3.47813 1.44376 3.47813C1.37813 3.5875 1.29063 3.71875 1.22501 3.82813L2.55938 4.8125H4.04688Z" fill="#ED4C5C"/>
<path d="M13.4313 5.6875H8.3125V0.56875C7.89687 0.48125 7.45937 0.4375 7 0.4375C6.54063 0.4375 6.10313 0.48125 5.6875 0.56875V5.6875H0.56875C0.48125 6.10313 0.4375 6.54063 0.4375 7C0.4375 7.45937 0.48125 7.89687 0.56875 8.3125H5.6875V13.4313C6.10313 13.5188 6.54063 13.5625 7 13.5625C7.45937 13.5625 7.89687 13.5188 8.3125 13.4313V8.3125H13.4313C13.5188 7.89687 13.5625 7.45937 13.5625 7C13.5625 6.54063 13.5188 6.10313 13.4313 5.6875Z" fill="#ED4C5C"/>
<circle cx="7" cy="7" r="6.9" stroke="black" stroke-width="0.2"/>
</svg>
