<svg width="155" height="44" viewBox="0 0 155 44" fill="none" xmlns="http://www.w3.org/2000/svg">
<path d="M45.5874 29L44.8728 26.2803H40.158L39.4235 29H35.1158L39.8503 14.429H45.0812L49.8753 29H45.5874ZM44.0589 23.0644L43.4335 20.6822C43.3674 20.4242 43.2714 20.0569 43.1457 19.5805C43.02 19.0974 42.8942 18.6011 42.7685 18.0916C42.6494 17.5755 42.5568 17.152 42.4906 16.8211C42.431 17.152 42.345 17.5623 42.2325 18.0519C42.1266 18.535 42.0142 19.0147 41.895 19.4911C41.7826 19.9676 41.6833 20.3646 41.5973 20.6822L40.972 23.0644H44.0589ZM51.1834 29V14.4886H55.1239V29H51.1834ZM75.3285 21.4366C75.3285 23.124 75.0142 24.5268 74.3855 25.6451C73.7569 26.7634 72.8702 27.6038 71.7255 28.1662C70.5873 28.7221 69.2473 29 67.7055 29H63.0107V14.4886H68.0331C69.5947 14.4886 70.9182 14.7566 72.0034 15.2926C73.0886 15.8286 73.9124 16.6127 74.4749 17.645C75.0439 18.6772 75.3285 19.9411 75.3285 21.4366ZM71.2589 21.5755C71.2589 20.6955 71.1398 19.9676 70.9016 19.3919C70.67 18.8096 70.3193 18.3762 69.8495 18.0916C69.3797 17.8005 68.7874 17.6549 68.0728 17.6549H66.9313V25.7841H67.8048C68.9959 25.7841 69.8693 25.44 70.4252 24.7518C70.981 24.057 71.2589 22.9982 71.2589 21.5755ZM77.6689 29V14.4886H81.6094V29H77.6689ZM93.9747 24.593C93.9747 25.3804 93.7762 26.1281 93.3792 26.8362C92.9821 27.5376 92.3634 28.1067 91.5231 28.5434C90.6893 28.9801 89.6107 29.1985 88.2873 29.1985C87.6256 29.1985 87.0433 29.1687 86.5403 29.1092C86.0441 29.0496 85.5809 28.9537 85.1507 28.8213C84.7206 28.6824 84.274 28.5037 83.8108 28.2853V24.7915C84.5982 25.1885 85.3923 25.4929 86.1929 25.7046C86.9936 25.9098 87.7182 26.0123 88.3667 26.0123C88.7571 26.0123 89.0747 25.966 89.3195 25.8734C89.571 25.7807 89.7563 25.655 89.8754 25.4962C89.9945 25.3308 90.0541 25.1422 90.0541 24.9304C90.0541 24.679 89.9647 24.4672 89.7861 24.2952C89.614 24.1165 89.3361 23.9313 88.9523 23.7394C88.5685 23.5475 88.0623 23.3092 87.4337 23.0247C86.8977 22.7733 86.4113 22.5152 85.9746 22.2505C85.5445 21.9858 85.1739 21.6847 84.8629 21.3473C84.5585 21.0032 84.3236 20.6028 84.1582 20.1462C83.9927 19.6897 83.91 19.1504 83.91 18.5284C83.91 17.5953 84.1383 16.8145 84.5949 16.1859C85.0581 15.5506 85.7 15.0742 86.5205 14.7566C87.3476 14.439 88.3005 14.2801 89.3791 14.2801C90.3254 14.2801 91.1757 14.386 91.93 14.5978C92.691 14.8095 93.3725 15.051 93.9747 15.3223L92.7737 18.3497C92.1517 18.0652 91.5396 17.8402 90.9374 17.6747C90.3353 17.5027 89.7761 17.4167 89.26 17.4167C88.9225 17.4167 88.6446 17.4597 88.4262 17.5457C88.2145 17.6251 88.0557 17.7343 87.9498 17.8733C87.8505 18.0122 87.8009 18.171 87.8009 18.3497C87.8009 18.5747 87.8869 18.7765 88.059 18.9552C88.2376 19.1338 88.5321 19.329 88.9424 19.5408C89.3593 19.7459 89.925 20.0139 90.6397 20.3448C91.3477 20.6624 91.9499 21.0065 92.4461 21.377C92.9424 21.741 93.3196 22.181 93.5777 22.6972C93.8424 23.2067 93.9747 23.8386 93.9747 24.593ZM100.702 14.4886C102.019 14.4886 103.114 14.6507 103.988 14.9749C104.861 15.2926 105.516 15.769 105.953 16.4043C106.396 17.0395 106.618 17.8302 106.618 18.7765C106.618 19.3654 106.519 19.9014 106.32 20.3845C106.122 20.8675 105.837 21.3009 105.467 21.6847C105.103 22.0619 104.666 22.3928 104.156 22.6773L108.385 29H103.938L100.861 23.7195H99.8685V29H95.9478V14.4886H100.702ZM100.643 17.4564H99.8685V20.7716H100.603C101.205 20.7716 101.698 20.6392 102.082 20.3745C102.466 20.1099 102.658 19.6367 102.658 18.9552C102.658 18.4853 102.499 18.1181 102.181 17.8534C101.864 17.5887 101.351 17.4564 100.643 17.4564ZM118.338 29L117.623 26.2803H112.909L112.174 29H107.867L112.601 14.429H117.832L122.626 29H118.338ZM116.81 23.0644L116.184 20.6822C116.118 20.4242 116.022 20.0569 115.896 19.5805C115.771 19.0974 115.645 18.6011 115.519 18.0916C115.4 17.5755 115.307 17.152 115.241 16.8211C115.182 17.152 115.096 17.5623 114.983 18.0519C114.877 18.535 114.765 19.0147 114.646 19.4911C114.533 19.9676 114.434 20.3646 114.348 20.6822L113.723 23.0644H116.81ZM132.55 29H123.934V14.4886H132.55V17.635H127.855V19.918H132.202V23.0644H127.855V25.8039H132.55V29ZM134.821 29V14.4886H138.741V25.8337H144.329V29H134.821ZM146.382 29V14.4886H150.322V29H146.382Z" fill="#090F69"/>
<path d="M23.3318 19.527C22.4563 20.4073 22.0188 21.6316 22.1383 22.867L22.1178 22.8465C22.2406 24.3003 21.7158 25.7342 20.6836 26.7659C19.6513 27.7975 18.2165 28.3219 16.7619 28.1992L16.7824 28.2197C15.0212 28.0559 13.3462 29.0134 12.5946 30.6137C11.843 32.2139 12.176 34.1134 13.4274 35.3629C14.6787 36.6124 16.5796 36.9435 18.1802 36.1909C19.7807 35.4383 20.7372 33.7634 20.5717 32.0034L20.5934 32.0239C20.4706 30.5701 20.9953 29.1361 22.0275 28.1045C23.0598 27.0728 24.4946 26.5484 25.9493 26.6712L25.9276 26.6506C27.8633 26.8246 29.6644 25.645 30.2775 23.8019C30.8906 21.9587 30.1546 19.9362 28.5 18.9173C26.8454 17.8984 24.7068 18.1509 23.3352 19.527H23.3318Z" fill="#00D1FF"/>
<path d="M14.8885 25.5618L14.8667 25.5411C16.1143 25.6668 17.3525 25.2256 18.2395 24.3391C19.1266 23.4526 19.5687 22.2146 19.4439 20.9667L19.4658 20.9874C19.3419 19.52 19.8712 18.0725 20.9124 17.0311C21.9536 15.9898 23.4009 15.4605 24.8682 15.5843L24.8464 15.5636C26.6231 15.7305 28.3136 14.7651 29.073 13.1499C29.8323 11.5348 29.4973 9.6169 28.2354 8.35489C26.9736 7.09288 25.0559 6.75785 23.441 7.51727C21.826 8.27668 20.8607 9.96743 21.0276 11.7444L21.0069 11.7225C21.1311 13.1901 20.602 14.6378 19.5607 15.6792C18.5194 16.7207 17.0718 17.2499 15.6044 17.1256L15.6251 17.1475C14.3775 17.0217 13.1393 17.463 12.2523 18.3495C11.3652 19.2359 10.9231 20.4739 11.0479 21.7218L11.0272 21.7011C11.1506 23.1685 10.6212 24.6157 9.58008 25.657C8.53894 26.6982 7.0919 27.2277 5.6247 27.1042L5.64542 27.1249C3.8687 26.9581 2.17816 27.9235 1.41884 29.5386C0.659511 31.1537 0.994502 33.0717 2.25636 34.3337C3.51822 35.5957 5.4359 35.9307 7.05083 35.1713C8.66576 34.4119 9.63105 32.7211 9.4642 30.9442L9.48607 30.9649C9.36221 29.4974 9.89148 28.05 10.9327 27.0086C11.9739 25.9673 13.4212 25.4379 14.8885 25.5618Z" fill="#353BCE"/>
<path d="M7.15568 23.1613C8.03143 22.281 8.46867 21.0562 8.34824 19.8208L8.36992 19.8413C8.24701 18.3869 8.77211 16.9523 9.80507 15.9204C10.838 14.8886 12.2737 14.3644 13.729 14.4879L13.7073 14.4673C15.4684 14.6322 17.1439 13.6758 17.8963 12.076C18.6488 10.4762 18.3167 8.57669 17.0659 7.32675C15.8152 6.0768 13.9145 5.74487 12.3137 6.49684C10.7129 7.24882 9.75584 8.92321 9.92082 10.6832L9.90028 10.6627C10.0231 12.1167 9.49829 13.5508 8.46586 14.5826C7.43342 15.6144 5.99836 16.1388 4.54345 16.0161L4.564 16.0366C2.62806 15.8631 0.826961 17.0432 0.214116 18.8866C-0.39873 20.73 0.337653 22.7525 1.99258 23.7713C3.6475 24.7901 5.78626 24.5375 7.15796 23.1613H7.15568Z" fill="#00D1FF"/>
</svg>
