<svg width="22" height="22" viewBox="0 0 22 22" fill="none" xmlns="http://www.w3.org/2000/svg">
<g clip-path="url(#clip0_1271_77272)">
<path d="M5.50027 11.0003C5.50856 11.3665 5.44359 11.7307 5.30919 12.0715C5.17479 12.4123 4.97366 12.7227 4.71762 12.9847C4.46158 13.2467 4.15578 13.4548 3.81818 13.597C3.48057 13.7391 3.11797 13.8124 2.75166 13.8125C2.38535 13.8126 2.02272 13.7395 1.68505 13.5975C1.34737 13.4555 1.04147 13.2475 0.785296 12.9857C0.529122 12.7238 0.327841 12.4135 0.19327 12.0728C0.0586992 11.7321 -0.0064496 11.3679 0.00164873 11.0017C0.0175376 10.2832 0.314082 9.59943 0.827802 9.09682C1.34152 8.59421 2.03159 8.31268 2.75029 8.3125C3.46899 8.31232 4.1592 8.5935 4.67317 9.09586C5.18714 9.59821 5.48403 10.2818 5.50027 11.0003Z" fill="#353BCE"/>
<path d="M13.7503 11.0003C13.7586 11.3665 13.6936 11.7307 13.5592 12.0715C13.4248 12.4123 13.2237 12.7227 12.9676 12.9847C12.7116 13.2467 12.4058 13.4548 12.0682 13.597C11.7306 13.7391 11.368 13.8124 11.0017 13.8125C10.6354 13.8126 10.2727 13.7395 9.93505 13.5975C9.59737 13.4555 9.29147 13.2475 9.0353 12.9857C8.77912 12.7238 8.57784 12.4135 8.44327 12.0728C8.3087 11.7321 8.24355 11.3679 8.25165 11.0017C8.26754 10.2832 8.56408 9.59943 9.0778 9.09682C9.59152 8.59421 10.2816 8.31268 11.0003 8.3125C11.719 8.31232 12.4092 8.5935 12.9232 9.09586C13.4371 9.59821 13.734 10.2818 13.7503 11.0003Z" fill="#353BCE"/>
<path d="M22.0003 11.0003C22.0086 11.3665 21.9436 11.7307 21.8092 12.0715C21.6748 12.4123 21.4737 12.7227 21.2176 12.9847C20.9616 13.2467 20.6558 13.4548 20.3182 13.597C19.9806 13.7391 19.618 13.8124 19.2517 13.8125C18.8854 13.8126 18.5227 13.7395 18.185 13.5975C17.8474 13.4555 17.5415 13.2475 17.2853 12.9857C17.0291 12.7238 16.8278 12.4135 16.6933 12.0728C16.5587 11.7321 16.4936 11.3679 16.5016 11.0017C16.5175 10.2832 16.8141 9.59943 17.3278 9.09682C17.8415 8.59421 18.5316 8.31268 19.2503 8.3125C19.969 8.31232 20.6592 8.5935 21.1732 9.09586C21.6871 9.59821 21.984 10.2818 22.0003 11.0003Z" fill="#353BCE"/>
</g>
<defs>
<clipPath id="clip0_1271_77272">
<rect width="22" height="22" fill="white"/>
</clipPath>
</defs>
</svg>
