<svg width="280" height="41" viewBox="0 0 280 41" fill="none" xmlns="http://www.w3.org/2000/svg">
<path opacity="0.4" d="M4.43466 17.1392C4.01705 17.1326 3.59943 17.053 3.18182 16.9006C2.7642 16.7481 2.38305 16.4912 2.03835 16.13C1.69366 15.7654 1.4169 15.2732 1.2081 14.6534C0.99929 14.0303 0.894886 13.2481 0.894886 12.3068C0.894886 11.4053 0.979403 10.6065 1.14844 9.91051C1.31747 9.21117 1.56274 8.62287 1.88423 8.1456C2.20573 7.66501 2.59351 7.30043 3.04759 7.05185C3.50497 6.80327 4.02036 6.67898 4.59375 6.67898C5.16383 6.67898 5.67093 6.79332 6.11506 7.02202C6.5625 7.2474 6.92708 7.56226 7.20881 7.96662C7.49053 8.37098 7.67282 8.83665 7.75568 9.36364H6.54261C6.42992 8.90625 6.21117 8.52675 5.88636 8.22514C5.56155 7.92353 5.13068 7.77273 4.59375 7.77273C3.80492 7.77273 3.18348 8.11577 2.7294 8.80185C2.27865 9.48793 2.05161 10.4508 2.0483 11.6903H2.12784C2.31345 11.4086 2.53385 11.1683 2.78906 10.9695C3.04759 10.7673 3.33262 10.6115 3.64418 10.5021C3.95573 10.3928 4.28551 10.3381 4.63352 10.3381C5.21686 10.3381 5.75047 10.4839 6.23438 10.7756C6.71828 11.0639 7.10606 11.4633 7.39773 11.9737C7.68939 12.4808 7.83523 13.0625 7.83523 13.7188C7.83523 14.3485 7.69437 14.9252 7.41264 15.4489C7.13092 15.9692 6.73485 16.3835 6.22443 16.6918C5.71733 16.9967 5.12074 17.1458 4.43466 17.1392ZM4.43466 16.0455C4.85227 16.0455 5.2268 15.9411 5.55824 15.7322C5.89299 15.5234 6.15649 15.2434 6.34872 14.892C6.54427 14.5407 6.64205 14.1496 6.64205 13.7188C6.64205 13.2978 6.54759 12.915 6.35866 12.5703C6.17306 12.2223 5.91619 11.9455 5.58807 11.7401C5.26326 11.5346 4.89205 11.4318 4.47443 11.4318C4.15956 11.4318 3.86624 11.4948 3.59446 11.6207C3.32268 11.7434 3.08404 11.9124 2.87855 12.1278C2.67637 12.3433 2.51728 12.5902 2.40128 12.8686C2.28527 13.1437 2.22727 13.4337 2.22727 13.7386C2.22727 14.143 2.32173 14.5208 2.51065 14.8722C2.70289 15.2235 2.96473 15.5069 3.29616 15.7223C3.63092 15.9377 4.01042 16.0455 4.43466 16.0455ZM13.0273 17.1392C12.2783 17.1392 11.6403 16.9354 11.1133 16.5277C10.5863 16.1167 10.1836 15.5218 9.90517 14.7429C9.62676 13.9607 9.48756 13.0161 9.48756 11.9091C9.48756 10.8087 9.62676 9.86908 9.90517 9.0902C10.1869 8.308 10.5912 7.71141 11.1182 7.30043C11.6485 6.88613 12.2849 6.67898 13.0273 6.67898C13.7698 6.67898 14.4045 6.88613 14.9314 7.30043C15.4618 7.71141 15.8661 8.308 16.1445 9.0902C16.4262 9.86908 16.5671 10.8087 16.5671 11.9091C16.5671 13.0161 16.4279 13.9607 16.1495 14.7429C15.8711 15.5218 15.4684 16.1167 14.9414 16.5277C14.4144 16.9354 13.7764 17.1392 13.0273 17.1392ZM13.0273 16.0455C13.7698 16.0455 14.3465 15.6875 14.7574 14.9716C15.1684 14.2557 15.3739 13.2348 15.3739 11.9091C15.3739 11.0275 15.2795 10.2768 15.0905 9.65696C14.9049 9.03717 14.6365 8.56487 14.2851 8.24006C13.9371 7.91525 13.5179 7.75284 13.0273 7.75284C12.2915 7.75284 11.7165 8.11577 11.3022 8.84162C10.8879 9.56416 10.6807 10.5866 10.6807 11.9091C10.6807 12.7907 10.7735 13.5398 10.9591 14.1562C11.1448 14.7727 11.4116 15.2417 11.7596 15.5632C12.1109 15.8847 12.5335 16.0455 13.0273 16.0455Z" fill="#252C32"/>
<path opacity="0.4" d="M249.72 17.1392C249.137 17.1392 248.612 17.0232 248.144 16.7912C247.677 16.5592 247.302 16.241 247.021 15.8366C246.739 15.4323 246.585 14.9716 246.558 14.4545H247.751C247.798 14.9152 248.007 15.2964 248.378 15.598C248.752 15.8963 249.2 16.0455 249.72 16.0455C250.138 16.0455 250.509 15.9477 250.834 15.7521C251.162 15.5566 251.419 15.2881 251.604 14.9467C251.793 14.602 251.888 14.2126 251.888 13.7784C251.888 13.3343 251.79 12.9382 251.595 12.5902C251.402 12.2389 251.137 11.9621 250.799 11.7599C250.461 11.5578 250.075 11.455 249.641 11.4517C249.329 11.4484 249.009 11.4964 248.681 11.5959C248.353 11.692 248.083 11.8163 247.871 11.9688L246.717 11.8295L247.334 6.81818H252.624V7.91193H248.368L248.01 10.9148H248.07C248.278 10.7491 248.54 10.6115 248.855 10.5021C249.17 10.3928 249.498 10.3381 249.84 10.3381C250.463 10.3381 251.018 10.4872 251.505 10.7855C251.996 11.0805 252.38 11.4848 252.658 11.9986C252.94 12.5123 253.081 13.099 253.081 13.7585C253.081 14.4081 252.935 14.9882 252.644 15.4986C252.355 16.0057 251.957 16.4067 251.45 16.7017C250.943 16.9934 250.367 17.1392 249.72 17.1392ZM258.293 17.1392C257.544 17.1392 256.906 16.9354 256.379 16.5277C255.852 16.1167 255.449 15.5218 255.171 14.7429C254.892 13.9607 254.753 13.0161 254.753 11.9091C254.753 10.8087 254.892 9.86908 255.171 9.0902C255.453 8.308 255.857 7.71141 256.384 7.30043C256.914 6.88613 257.551 6.67898 258.293 6.67898C259.035 6.67898 259.67 6.88613 260.197 7.30043C260.727 7.71141 261.132 8.308 261.41 9.0902C261.692 9.86908 261.833 10.8087 261.833 11.9091C261.833 13.0161 261.694 13.9607 261.415 14.7429C261.137 15.5218 260.734 16.1167 260.207 16.5277C259.68 16.9354 259.042 17.1392 258.293 17.1392ZM258.293 16.0455C259.035 16.0455 259.612 15.6875 260.023 14.9716C260.434 14.2557 260.64 13.2348 260.64 11.9091C260.64 11.0275 260.545 10.2768 260.356 9.65696C260.171 9.03717 259.902 8.56487 259.551 8.24006C259.203 7.91525 258.784 7.75284 258.293 7.75284C257.557 7.75284 256.982 8.11577 256.568 8.84162C256.154 9.56416 255.946 10.5866 255.946 11.9091C255.946 12.7907 256.039 13.5398 256.225 14.1562C256.41 14.7727 256.677 15.2417 257.025 15.5632C257.377 15.8847 257.799 16.0455 258.293 16.0455ZM266.959 17.1392C266.21 17.1392 265.572 16.9354 265.045 16.5277C264.518 16.1167 264.115 15.5218 263.837 14.7429C263.558 13.9607 263.419 13.0161 263.419 11.9091C263.419 10.8087 263.558 9.86908 263.837 9.0902C264.119 8.308 264.523 7.71141 265.05 7.30043C265.58 6.88613 266.217 6.67898 266.959 6.67898C267.701 6.67898 268.336 6.88613 268.863 7.30043C269.393 7.71141 269.798 8.308 270.076 9.0902C270.358 9.86908 270.499 10.8087 270.499 11.9091C270.499 13.0161 270.36 13.9607 270.081 14.7429C269.803 15.5218 269.4 16.1167 268.873 16.5277C268.346 16.9354 267.708 17.1392 266.959 17.1392ZM266.959 16.0455C267.701 16.0455 268.278 15.6875 268.689 14.9716C269.1 14.2557 269.306 13.2348 269.306 11.9091C269.306 11.0275 269.211 10.2768 269.022 9.65696C268.837 9.03717 268.568 8.56487 268.217 8.24006C267.869 7.91525 267.45 7.75284 266.959 7.75284C266.223 7.75284 265.648 8.11577 265.234 8.84162C264.82 9.56416 264.612 10.5866 264.612 11.9091C264.612 12.7907 264.705 13.5398 264.891 14.1562C265.076 14.7727 265.343 15.2417 265.691 15.5632C266.043 15.8847 266.465 16.0455 266.959 16.0455ZM275.625 17.1392C274.876 17.1392 274.238 16.9354 273.711 16.5277C273.184 16.1167 272.781 15.5218 272.503 14.7429C272.224 13.9607 272.085 13.0161 272.085 11.9091C272.085 10.8087 272.224 9.86908 272.503 9.0902C272.785 8.308 273.189 7.71141 273.716 7.30043C274.246 6.88613 274.883 6.67898 275.625 6.67898C276.367 6.67898 277.002 6.88613 277.529 7.30043C278.059 7.71141 278.464 8.308 278.742 9.0902C279.024 9.86908 279.165 10.8087 279.165 11.9091C279.165 13.0161 279.026 13.9607 278.747 14.7429C278.469 15.5218 278.066 16.1167 277.539 16.5277C277.012 16.9354 276.374 17.1392 275.625 17.1392ZM275.625 16.0455C276.367 16.0455 276.944 15.6875 277.355 14.9716C277.766 14.2557 277.972 13.2348 277.972 11.9091C277.972 11.0275 277.877 10.2768 277.688 9.65696C277.503 9.03717 277.234 8.56487 276.883 8.24006C276.535 7.91525 276.116 7.75284 275.625 7.75284C274.889 7.75284 274.314 8.11577 273.9 8.84162C273.486 9.56416 273.278 10.5866 273.278 11.9091C273.278 12.7907 273.371 13.5398 273.557 14.1562C273.742 14.7727 274.009 15.2417 274.357 15.5632C274.709 15.8847 275.131 16.0455 275.625 16.0455Z" fill="#252C32"/>
<path d="M0 32C0 31.4477 0.447715 31 1 31H279C279.552 31 280 31.4477 280 32C280 32.5523 279.552 33 279 33H1.00001C0.447721 33 0 32.5523 0 32Z" fill="#EEF0F2"/>
<path d="M10 31H56V33H10V31Z" fill="#D5DADD"/>
<path d="M0.5 31C0.5 29.067 2.067 27.5 4 27.5H9.5V36.5H4C2.067 36.5 0.5 34.933 0.5 33V31Z" fill="#F6F8F9" stroke="#E5E9EB"/>
<path d="M56.5 27.5H62C63.933 27.5 65.5 29.067 65.5 31V33C65.5 34.933 63.933 36.5 62 36.5H56.5V27.5Z" fill="#F6F8F9" stroke="#E5E9EB"/>
</svg>
