<svg width="17" height="17" viewBox="0 0 17 17" fill="none" xmlns="http://www.w3.org/2000/svg">
    <path d="M8.5 17C10.7543 17 12.9163 16.1045 14.5104 14.5104C16.1045 12.9163 17 10.7543 17 8.5C17 6.24566 16.1045 4.08365 14.5104 2.48959C12.9163 0.895534 10.7543 0 8.5 0C6.24566 0 4.08365 0.895534 2.48959 2.48959C0.895533 4.08365 0 6.24566 0 8.5C0 10.7543 0.895533 12.9163 2.48959 14.5104C4.08365 16.1045 6.24566 17 8.5 17ZM6.61111 9.99789L11.6091 4.99989C11.7862 4.82255 12.0265 4.72282 12.2771 4.72264C12.4012 4.72255 12.5241 4.74691 12.6388 4.79432C12.7535 4.84173 12.8577 4.91126 12.9455 4.99894C13.0333 5.08663 13.103 5.19076 13.1506 5.30537C13.1981 5.41999 13.2227 5.54285 13.2227 5.66694C13.2228 5.79104 13.1985 5.91394 13.1511 6.02862C13.1037 6.1433 13.0341 6.24752 12.9464 6.33533L7.27978 12.002C7.19205 12.09 7.08782 12.1597 6.97308 12.2073C6.85834 12.255 6.73534 12.2795 6.61111 12.2795C6.48688 12.2795 6.36388 12.255 6.24914 12.2073C6.1344 12.1597 6.03017 12.09 5.94244 12.002L4.05355 10.1131C3.87646 9.93577 3.77707 9.69534 3.77725 9.44472C3.77743 9.1941 3.87716 8.95381 4.0545 8.77672C4.23184 8.59963 4.47227 8.50024 4.72289 8.50042C4.97351 8.5006 5.2138 8.60033 5.39089 8.77767L6.61111 9.99789Z" fill="white"/>
</svg>
