<svg width="76" height="31" viewBox="0 0 76 31" fill="none" xmlns="http://www.w3.org/2000/svg">
<path d="M1.38031 28.9222C1.26302 28.6853 1.25665 28.6698 1.51252 28.5801C1.64457 28.5406 1.7716 28.4701 1.87253 28.3801C1.97705 28.2725 2.03037 28.1326 2.23306 28.0586C2.53768 27.9519 2.53932 27.6823 2.85244 27.5755C3.09207 27.4916 3.33576 27.4062 3.57539 27.3223C3.70261 27.2728 3.81961 27.1953 3.90719 27.1026C4.03432 27.0048 4.23119 26.9507 4.29455 26.822C4.521 26.7663 4.60589 26.5769 4.79524 26.4988C4.9846 26.4206 5.12811 26.1929 5.41449 26.1399C5.61328 26.0999 5.81796 25.9779 6.02778 25.9251C6.30934 25.8679 6.41705 25.6586 6.6474 25.5691C6.87776 25.4795 7.12666 25.4012 7.37035 25.3158C7.6104 25.2511 7.85015 25.1671 8.08519 25.0655C8.30757 24.9074 8.55488 24.7764 8.81157 24.6809C9.08715 24.611 9.35988 24.4888 9.62388 24.3964C9.88788 24.3039 10.0039 24.0622 10.3483 23.9977C10.6579 23.9131 10.9669 23.8048 11.2703 23.6748C11.5426 23.5938 11.8141 23.4987 12.0826 23.3903C12.3762 23.2075 12.6897 23.0528 13.0117 22.9318C13.3558 22.826 13.6989 22.7058 14.0392 22.5718C14.3811 22.4387 14.7255 22.3181 15.0709 22.2105C15.3664 22.1306 15.4817 21.8832 15.7913 21.8132C16.1016 21.7208 16.4111 21.6124 16.7173 21.4889C16.9935 21.3921 17.2697 21.2954 17.5296 21.2043C17.8803 21.0608 18.2944 21.04 18.5654 20.7173C18.5654 20.7173 18.6304 20.6946 18.6629 20.6832L20.6206 19.9975C20.8134 19.7259 21.1583 19.6967 21.4436 19.5731C21.468 19.5646 21.5118 19.5108 21.5069 19.5066C21.5021 19.5024 21.4312 19.4503 21.4031 19.4631C21.0477 19.6024 20.6588 19.6529 20.3629 19.9487C20.2915 20.0181 20.0948 20.0426 19.9567 20.091L17.8975 20.8123C17.6335 20.9047 17.5167 21.1408 17.1768 21.2067C16.9041 21.282 16.6319 21.3774 16.3645 21.4912C16.0923 21.5865 15.8162 21.6833 15.5522 21.7757C15.197 21.9179 14.9216 22.177 14.5183 22.2769C14.1398 22.3902 13.7626 22.5223 13.3891 22.6724C13.0114 22.8047 12.6319 22.9553 12.256 23.0693C11.9676 23.1703 11.8411 23.3979 11.5315 23.4679C11.2591 23.5474 10.9875 23.6425 10.7192 23.7525L7.42126 24.9077C7.11181 24.9938 6.80297 25.102 6.49929 25.2306C6.16097 25.4023 5.93955 25.2758 5.63609 25.391C5.33263 25.5062 5.01874 25.6072 4.71006 25.7154C4.64657 25.7384 4.58261 25.7451 4.52966 25.7342C4.30241 25.6649 4.01464 25.6782 3.72206 25.7716C3.51998 25.8188 3.3372 25.726 3.10697 25.6913C3.49356 25.4051 3.87053 25.4239 4.16386 25.2029C4.15082 25.1069 4.00967 25.1327 3.9285 25.099C3.84734 25.0653 3.71744 25.0487 3.61559 25.0193C3.51373 24.99 3.46023 24.9407 3.5872 24.8104C3.63318 24.7554 3.66533 24.6974 3.6812 24.6406C3.69707 24.5838 3.69625 24.5298 3.67881 24.4826C3.66193 24.3584 3.87764 24.2237 3.88283 24.0741C3.88801 23.9244 4.17318 23.925 4.33081 23.8639C4.57044 23.78 4.81413 23.6946 5.05376 23.6107C5.14138 23.5631 5.22292 23.5065 5.29483 23.4434C5.46586 23.3244 5.4802 23.3046 5.64413 23.3211C5.75557 23.3387 5.88683 23.3219 6.01634 23.2735C6.11136 23.2353 6.2089 23.2211 6.29169 23.2333C6.40557 23.2722 6.54057 23.2854 6.68627 23.2718C6.83196 23.2582 6.98445 23.2182 7.132 23.1548C7.34021 23.0623 7.54253 22.9547 7.73516 22.8341C7.88799 22.9255 8.10484 22.7993 8.30056 22.7366L10.3598 22.0153C10.5669 21.9428 10.7659 21.8731 10.9771 21.7991C11.0431 21.7866 11.1103 21.7607 11.1713 21.7243C11.2322 21.6878 11.2848 21.6421 11.3234 21.592C11.3726 21.5157 11.3915 21.5297 11.4737 21.5394C11.7822 21.5555 11.7896 21.547 11.9651 21.3673L12.0991 21.2257C12.0164 21.2226 11.9284 21.2304 11.8384 21.249C11.5663 21.3443 11.2901 21.441 11.0261 21.5335C10.9774 21.5506 10.9229 21.5253 10.8711 21.5198C10.9212 21.4816 10.9731 21.4249 11.0299 21.405C11.3386 21.2969 11.6473 21.1888 11.956 21.0807C12.0819 21.0366 12.1107 20.8106 12.3275 20.9032C12.4632 20.9621 12.6515 20.8134 12.8133 20.7833C12.8299 20.78 12.8457 20.7798 12.8595 20.7827C12.8732 20.7856 12.8844 20.7916 12.8922 20.8C12.9809 21.1712 13.4158 20.7704 13.6867 20.7288C13.7246 20.6877 13.7496 20.643 13.7585 20.6001C13.7501 20.538 13.7409 20.4702 13.872 20.4332C13.9086 20.4204 13.9512 20.5149 13.9714 20.5699C14.0281 20.7363 14.1073 20.7559 14.359 20.6352C14.4483 20.5887 14.5339 20.5359 14.6142 20.4778C14.7359 20.3836 14.8778 20.3085 15.0249 20.2607C15.1719 20.2128 15.3187 20.1939 15.4495 20.2059C15.5882 20.2253 15.7103 20.153 15.8378 20.1202C15.9652 20.0874 16.0327 20.0519 16.0135 19.9729C16.0112 19.956 15.8996 19.9803 15.8367 19.9875C15.7739 19.9947 15.6704 20.0162 15.6641 20.0006C15.6537 19.9244 15.7379 19.8861 15.8398 19.8533L15.9413 19.8178C16.1589 19.7593 16.2369 19.6758 16.2181 19.5375C16.2104 19.481 16.3074 19.4116 16.4104 19.4494C16.4528 19.4585 16.5027 19.4564 16.5542 19.4434C16.7335 19.1973 17.0419 19.1809 17.3003 19.0786C17.4107 19.0196 17.5288 18.9781 17.6446 18.9576C17.7603 18.9372 17.8703 18.9383 17.9651 18.961C18.0277 18.9835 18.2325 18.894 18.3712 18.8188C18.5099 18.7436 18.512 18.6335 18.683 18.5765C19.1297 18.42 19.5765 18.2635 20.0233 18.1071C20.072 18.09 20.1244 18.1308 20.181 18.1405C20.2536 18.1501 20.3361 18.1418 20.4198 18.1167C20.5034 18.0916 20.5848 18.0506 20.6552 17.9981C20.7008 17.9404 20.7591 17.8867 20.8261 17.8404C20.8931 17.794 20.9675 17.7562 21.0442 17.7293C21.1209 17.7025 21.1982 17.6872 21.2712 17.6845C21.3441 17.6817 21.411 17.6917 21.4675 17.7136C21.4675 17.7136 21.5663 17.6582 21.6039 17.6214C21.7452 17.4714 21.8716 17.4626 22.0344 17.4706C22.1972 17.4787 22.2701 17.4827 22.3715 17.3525C22.5293 17.1672 22.736 17.1539 22.9246 17.0701C23.2514 17.1893 23.6292 16.9327 23.9845 16.8231C24.1477 16.6151 24.3307 16.5214 24.5552 16.6083C24.5552 16.6083 24.6162 16.587 24.6243 16.5842C24.7686 16.3621 25.0414 16.3346 25.2644 16.2535C25.7436 16.0856 26.227 15.9163 26.7062 15.7485C26.9621 15.6588 27.2719 15.6213 27.4338 15.3724C27.6821 15.4776 27.997 15.2904 28.2865 15.1979C28.5761 15.1053 28.8348 15.0058 29.0988 14.9134C29.1648 14.8984 29.2309 14.8705 29.2901 14.8326C29.3494 14.7946 29.3996 14.7481 29.4355 14.6979C29.4785 14.6384 29.5206 14.6355 29.5881 14.6622C29.6153 14.6748 29.6485 14.6811 29.6852 14.6805C29.722 14.68 29.7613 14.6726 29.8004 14.6589C29.8394 14.6452 29.877 14.6257 29.9106 14.6016C29.9442 14.5775 29.9727 14.5496 29.9942 14.5199C30.0714 14.4307 30.1196 14.4405 30.2216 14.4402C30.3519 14.4494 30.4978 14.4257 30.6417 14.3722C30.7855 14.3187 30.921 14.2376 31.0317 14.1388C31.1638 14.0156 31.19 14.0833 31.26 14.0972C31.4342 14.0953 31.4508 14.0925 31.6134 13.9734C31.679 13.9239 31.7032 13.8207 31.8289 13.8684C31.9043 13.8951 32.0005 13.8955 32.1011 13.8695C32.2016 13.8434 32.3001 13.7926 32.3796 13.7257C32.5989 13.4922 32.871 13.459 33.1298 13.3595C33.3886 13.26 33.5992 13.1507 33.7982 13.2377C33.8257 13.2518 34.0013 13.1666 34.0599 13.1283C34.1472 13.0325 34.269 12.9538 34.4003 12.9086C34.8064 12.7663 35.2126 12.624 35.6187 12.4818L46.9503 8.51262C47.1859 8.43011 47.4221 8.32077 47.6126 8.4078C47.7062 8.38659 47.7988 8.33929 47.8712 8.27581C47.9841 8.13573 48.0552 8.15813 48.1718 8.17053C48.2884 8.18293 48.3276 8.03317 48.3742 8.03163C48.8942 8.03874 49.4169 7.75215 49.9387 7.58416C50.5218 7.39766 51.1044 7.17587 51.6892 6.97101L53.3382 6.39342C53.8865 6.20136 54.4348 6.00931 54.9831 5.81725C55.2715 5.71625 55.6019 5.67443 55.8296 5.40839C55.8848 5.3447 56.0872 5.3004 56.2334 5.24919C59.1537 4.22631 62.0699 3.20486 64.9901 2.18198C65.25 2.09093 65.4101 2.14134 65.6417 2.09273C65.8734 2.04411 66.0417 1.9053 66.2405 1.92736C66.2953 1.93419 66.3479 1.94443 66.3978 1.95802C66.588 1.66665 66.7944 1.74518 67.0598 1.72612C67.3329 1.66006 67.6067 1.56415 67.8721 1.4416C68.1361 1.34913 68.304 1.48846 68.6338 1.31675C68.8662 1.20457 69.1082 1.1198 69.3486 1.06637C69.4989 1.01373 69.6419 1.06419 69.7949 1.03131C69.9478 0.998433 70.1482 0.907539 70.3066 0.852055C70.465 0.796573 70.555 0.895171 70.7552 0.833931C70.8851 0.788407 71.0062 0.896806 71.2022 0.804514C71.2271 0.822698 71.2472 0.844488 71.262 0.869308C71.087 0.989781 71.174 1.09827 71.0828 1.21005C71.0332 1.28647 70.961 1.35835 70.8739 1.41801C70.7868 1.47767 70.6882 1.52288 70.5885 1.54881C70.5113 1.57584 70.4262 1.63819 70.3314 1.69209L70.7702 1.78977C70.7721 1.80388 70.7756 1.82929 70.7759 1.83211C70.555 2.02189 70.4704 2.27626 70.0896 2.38599C69.9166 2.43622 69.7441 2.49665 69.5738 2.56666C69.3788 2.63495 69.4214 2.72943 69.437 2.81269L69.4455 2.8748C69.2383 2.94735 69.1448 3.10433 68.9419 3.20793C68.7389 3.31154 68.6268 3.51939 68.4479 3.70623C68.5499 3.69406 68.6541 3.67343 68.7587 3.6447L71.8454 2.5635C72.1501 2.4568 72.4533 2.37129 72.7591 2.27306C72.9855 2.37412 73.269 2.17429 73.5279 2.10725C73.8114 2.22087 74.3483 1.882 74.5864 2.10023C74.6592 2.1664 74.846 2.16308 74.9645 2.18959L75.0182 2.58479C75.0239 2.62713 75.0571 2.68352 75.0347 2.70617C74.7286 2.9583 74.9438 3.10176 74.8941 3.29956L74.1331 3.71102C74.0609 3.71262 73.9972 3.61961 73.9176 3.75395C73.838 3.88829 73.3775 3.94316 73.5058 4.16732C73.5081 4.18425 73.4179 4.27203 73.3724 4.28204C73.2564 4.30815 73.1399 4.35688 73.0352 4.4232C72.9305 4.48951 72.8413 4.57099 72.777 4.65918C72.729 4.7217 72.6629 4.77859 72.5861 4.82326C72.5094 4.86793 72.4252 4.89857 72.3432 4.91165C72.1239 4.98847 72.0779 5.18202 71.8251 5.23211C71.6189 5.27175 71.4096 5.34507 71.2119 5.44692C70.995 5.57316 70.8713 5.38287 70.7097 5.54002C70.6461 5.59654 70.5726 5.64644 70.4934 5.68686C70.4142 5.72729 70.3309 5.75745 70.2481 5.77562C70.0207 5.85529 69.7651 6.00986 69.5804 5.90304C69.3123 5.99694 69.0412 6.06825 68.765 6.16499C68.4889 6.26173 68.2793 6.28487 68.1298 6.49987C68.104 6.52171 68.0738 6.54026 68.0418 6.55406C68.0097 6.56786 67.9765 6.57655 67.9449 6.57943C67.7784 6.57563 67.6209 6.51251 67.494 6.73734L65.2318 7.52975C65.0601 7.5795 64.8889 7.63946 64.72 7.70901C64.5724 7.7814 64.4532 7.90596 64.3016 7.97978C64.1329 8.05071 63.9615 8.11073 63.7898 8.15904C63.4991 8.29901 63.1888 8.36334 62.9208 8.33923C62.8586 8.33985 62.7919 8.35222 62.7257 8.3754C62.6595 8.39857 62.5957 8.43194 62.539 8.47296C62.3717 8.68237 62.1267 8.72678 61.8997 8.80927C61.8036 8.85656 61.7026 8.88949 61.6039 8.90563C61.5052 8.92178 61.4114 8.92072 61.3294 8.90255C61.2627 8.88154 61.0705 8.96959 60.9202 9.02223L54.2227 11.3682C54.0247 11.424 53.8335 11.5299 53.6846 11.6661C53.6044 11.733 53.505 11.7835 53.4041 11.8086C53.3032 11.8337 53.2072 11.8317 53.133 11.8031C53.0652 11.7736 53.0275 11.7779 52.9868 11.8543C52.8639 12.0452 52.6313 12.0557 52.4423 12.1367C52.2669 12.0355 52.0185 12.1491 51.7877 12.2359C51.557 12.3226 51.3985 12.3456 51.2355 12.5239C51.1534 12.6089 50.9233 12.6688 50.7568 12.7271C47.6335 13.8211 44.5101 14.9151 41.3868 16.0091C40.9807 16.1514 40.5634 16.2118 40.2495 16.5317C40.2201 16.5493 40.1882 16.5627 40.1561 16.5708C40.1241 16.579 40.0927 16.5817 40.0644 16.5788C39.9042 16.4959 39.6969 16.5981 39.4978 16.6678L25.4937 21.5731C25.2663 21.6527 25.0213 21.6971 24.8499 21.908C24.7775 22.0013 24.6225 21.9876 24.4978 21.9781C24.4019 21.9575 24.2841 21.9715 24.1691 22.0173C24.0541 22.0631 23.9506 22.1371 23.8802 22.224C23.8177 22.2961 23.8015 22.3018 23.7259 22.278C23.6532 22.2549 23.5616 22.2566 23.467 22.283C23.0609 22.4252 22.6547 22.5675 22.2486 22.7097C21.8424 22.852 21.6289 23.1279 21.2154 23.2165C20.8366 23.324 20.4586 23.4564 20.0863 23.612L13.2792 25.9964C13.0843 26.0646 12.8692 26.1104 12.7314 26.2858C12.6766 26.3523 12.4838 26.4051 12.3538 26.4506C10.1931 27.2075 8.0283 27.9657 5.85539 28.7268C5.65637 28.7965 5.45345 28.9001 5.28147 28.8244C5.28147 28.8244 5.09918 28.9858 4.99396 29.0256C4.10043 29.3386 3.21326 29.6671 2.31742 29.9631C2.06711 30.0208 1.82487 30.0326 1.61152 29.9975C1.52975 29.9906 1.5313 30.0019 1.4572 30.0515C0.983781 30.3563 1.01566 30.3718 0.57268 30.243C0.671532 30.1877 0.758965 30.1423 0.841571 30.0927C0.924178 30.043 1.03145 29.8931 0.961707 29.8495C0.891961 29.8059 0.84031 29.8329 0.807276 29.809C0.66916 29.7006 0.690301 29.637 0.99972 29.3778C1.12937 29.2673 1.09465 29.1997 1.08759 29.1164C1.08052 29.0331 1.06418 28.9442 1.37087 28.8841C1.43179 28.8627 1.40336 28.8727 1.36627 28.8502C1.35194 28.8495 1.33615 28.852 1.32047 28.8575C1.30478 28.863 1.28976 28.8713 1.27691 28.8815C1.27081 28.8921 1.26826 28.9027 1.26955 28.9122C1.27084 28.9216 1.27591 28.9296 1.2842 28.9351C1.32279 28.9465 1.36669 28.9512 1.41373 28.9489C1.41373 28.9489 1.45626 28.9488 1.38031 28.9222ZM62.9908 5.56742C63.263 5.47211 63.5351 5.37679 63.8031 5.2829C63.8356 5.27152 63.8612 5.20932 63.8773 5.17115C63.8934 5.13299 63.8273 5.14729 63.8029 5.15582C63.3277 5.32227 62.8525 5.48872 62.3732 5.65659C62.3448 5.66655 62.3152 5.73016 62.3031 5.7669C62.2911 5.80365 62.3532 5.79077 62.3776 5.78224L62.9908 5.56742ZM6.2023 24.0157L6.39402 23.8924C6.39402 23.8924 6.3898 23.8613 6.38827 23.85C6.30266 23.8149 6.08334 23.8918 6.05928 23.9652C6.04243 23.9978 6.14972 24.0045 6.2023 24.0157Z" fill="#C31A12" fill-opacity="0.7"/>
</svg>
