<svg width="16" height="15" viewBox="0 0 16 15" fill="none" xmlns="http://www.w3.org/2000/svg">
<path d="M10.4746 6.01401C10.7197 6.01408 10.9562 6.10414 11.1393 6.2671C11.3223 6.43007 11.4392 6.65458 11.4676 6.89801L11.4746 7.01401V11.382C11.4811 12.2939 11.1299 13.172 10.4963 13.8278C9.86271 14.4836 8.99725 14.8648 8.08571 14.8897C7.17417 14.9146 6.2892 14.5811 5.62079 13.9608C4.95238 13.3405 4.55379 12.4829 4.5106 11.572L4.5056 11.382V7.01401C4.50563 6.76908 4.59556 6.53268 4.75832 6.34964C4.92108 6.16661 5.14535 6.04967 5.3886 6.02101L5.5056 6.01401H10.4746ZM3.7736 6.01401C3.62813 6.2651 3.53938 6.54498 3.5136 6.83401L3.5056 7.01401V11.382L3.5106 11.592C3.5406 12.235 3.7056 12.842 3.9776 13.387C3.55652 13.5639 3.09916 13.6371 2.64391 13.6007C2.18865 13.5643 1.74877 13.4192 1.36117 13.1777C0.973562 12.9361 0.64954 12.6051 0.416284 12.2125C0.183027 11.8198 0.0473384 11.3769 0.0206015 10.921L0.0166016 10.753V7.01401C0.0166339 6.76908 0.106558 6.53268 0.269317 6.34964C0.432076 6.16661 0.65635 6.04967 0.899602 6.02101L1.0166 6.01401H3.7736ZM12.2066 6.01401H14.9906C15.2357 6.01408 15.4722 6.10414 15.6553 6.2671C15.8383 6.43007 15.9552 6.65458 15.9836 6.89801L15.9906 7.01401V10.754C15.9909 11.227 15.8736 11.6927 15.6494 12.1091C15.4252 12.5256 15.101 12.8799 14.706 13.14C14.311 13.4002 13.8575 13.5582 13.3863 13.5997C12.9152 13.6412 12.441 13.5651 12.0066 13.378C12.2753 12.8384 12.4318 12.2498 12.4666 11.648L12.4746 11.382V7.01401L12.4686 6.86501C12.4467 6.56519 12.3571 6.27424 12.2066 6.01401ZM7.9876 0.989014C8.57837 0.989014 9.14494 1.2237 9.56268 1.64143C9.98042 2.05917 10.2151 2.62574 10.2151 3.21651C10.2151 3.80728 9.98042 4.37386 9.56268 4.79159C9.14494 5.20933 8.57837 5.44401 7.9876 5.44401C7.39683 5.44401 6.83026 5.20933 6.41252 4.79159C5.99478 4.37386 5.7601 3.80728 5.7601 3.21651C5.7601 2.62574 5.99478 2.05917 6.41252 1.64143C6.83026 1.2237 7.39683 0.989014 7.9876 0.989014ZM12.9756 1.61701C13.4831 1.61701 13.9698 1.81861 14.3286 2.17746C14.6875 2.53632 14.8891 3.02302 14.8891 3.53051C14.8891 4.03801 14.6875 4.52471 14.3286 4.88356C13.9698 5.24241 13.4831 5.44401 12.9756 5.44401C12.4681 5.44401 11.9814 5.24241 11.6226 4.88356C11.2637 4.52471 11.0621 4.03801 11.0621 3.53051C11.0621 3.02302 11.2637 2.53632 11.6226 2.17746C11.9814 1.81861 12.4681 1.61701 12.9756 1.61701ZM3.0156 1.61701C3.52309 1.61701 4.0098 1.81861 4.36865 2.17746C4.7275 2.53632 4.9291 3.02302 4.9291 3.53051C4.9291 4.03801 4.7275 4.52471 4.36865 4.88356C4.0098 5.24241 3.52309 5.44401 3.0156 5.44401C2.50811 5.44401 2.0214 5.24241 1.66255 4.88356C1.3037 4.52471 1.1021 4.03801 1.1021 3.53051C1.1021 3.02302 1.3037 2.53632 1.66255 2.17746C2.0214 1.81861 2.50811 1.61701 3.0156 1.61701Z" fill="white"/>
</svg>
