<svg width="20" height="20" viewBox="0 0 20 20" fill="none" xmlns="http://www.w3.org/2000/svg">
<path d="M19.1668 9.99992C19.1668 7.56877 18.2011 5.23719 16.482 3.51811C14.7629 1.79902 12.4313 0.833252 10.0002 0.833252C7.56901 0.833252 5.23743 1.79902 3.51835 3.51811C1.79927 5.23719 0.833496 7.56877 0.833496 9.99992C0.833496 12.4311 1.79927 14.7626 3.51835 16.4817C5.23743 18.2008 7.56901 19.1666 10.0002 19.1666C12.4313 19.1666 14.7629 18.2008 16.482 16.4817C18.2011 14.7626 19.1668 12.4311 19.1668 9.99992ZM10.0702 4.16992L10.2135 4.19492L10.3185 4.22825L10.4318 4.28658L10.5102 4.33992L14.7568 8.57658L14.8518 8.69325C14.9616 8.85367 15.0118 9.04741 14.9938 9.24095C14.9759 9.43449 14.8908 9.61566 14.7533 9.7531C14.6159 9.89054 14.4347 9.97562 14.2412 9.9936C14.0477 10.0116 13.8539 9.96135 13.6935 9.85159L13.5768 9.75658L10.8335 7.00992V15.8333L10.8202 15.9833C10.7897 16.1498 10.7093 16.3031 10.5897 16.4227C10.47 16.5424 10.3167 16.6228 10.1502 16.6533L10.0002 16.6666L9.85016 16.6533C9.68365 16.6228 9.53036 16.5424 9.41067 16.4227C9.29098 16.3031 9.21058 16.1498 9.18016 15.9833L9.16683 15.8316L9.16516 7.01159L6.4235 9.75492L6.30683 9.84992C6.16767 9.94596 6.00258 9.99739 5.8335 9.99739C5.66441 9.99739 5.49932 9.94596 5.36016 9.84992L5.2435 9.75492L5.1485 9.63825C5.05245 9.49909 5.00102 9.334 5.00102 9.16492C5.00102 8.99583 5.05245 8.83075 5.1485 8.69158L5.2435 8.57492L9.43183 4.38825L9.52516 4.31325L9.64849 4.24325L9.78683 4.19325L9.88683 4.17325L9.98016 4.16492L10.0702 4.16825V4.16992Z" fill="white"/>
</svg>
